<svg width="15" height="14" viewBox="0 0 15 14" fill="none" xmlns="http://www.w3.org/2000/svg">
<g id="Group 1707480462">
<g id="Group 1707480461">
<path id="Vector" d="M10.8494 1C8.63631 1 7.54546 3.18181 7.54546 3.18181C7.54546 3.18181 6.45461 1 4.24154 1C2.443 1 1.01876 2.50477 1.00035 4.30033C0.96285 8.02747 3.9569 10.678 7.23866 12.9055C7.32913 12.9671 7.43603 13 7.54546 13C7.65489 13 7.76178 12.9671 7.85226 12.9055C11.1337 10.678 14.1277 8.02747 14.0906 4.30033C14.0722 2.50477 12.6479 1 10.8494 1Z" stroke="#207DFF" stroke-width="0.8" stroke-linecap="round" stroke-linejoin="round"/>
</g>
<path id="Vector 179" d="M11 7.53146C11.1933 7.53146 11.35 7.37476 11.35 7.18146C11.35 6.98816 11.1933 6.83146 11 6.83146V7.53146ZM7.69665 7.12158L8.01724 6.98116L7.69665 7.12158ZM6.92567 5.36578L7.25859 5.4738L6.92567 5.36578ZM6.92754 5.36569L6.60694 5.50612L6.92754 5.36569ZM5.86359 8.63347L5.53925 8.76501L5.86359 8.63347ZM5.86547 8.6334L5.53256 8.52538L5.86547 8.6334ZM4.53641 5.36572L4.20763 5.24571L4.53641 5.36572ZM4.53828 5.36569L4.86262 5.23414L4.53828 5.36569ZM1.67188 7.16783H3.93642V6.46783H1.67188V7.16783ZM4.35914 6.87213L4.86519 5.48573L4.20763 5.24571L3.70158 6.63211L4.35914 6.87213ZM4.21394 5.49723L5.53925 8.76501L6.18793 8.50192L4.86262 5.23414L4.21394 5.49723ZM6.19839 8.74142L7.25859 5.4738L6.59276 5.25777L5.53256 8.52538L6.19839 8.74142ZM6.60694 5.50612L7.37605 7.26201L8.01724 6.98116L7.24813 5.22527L6.60694 5.50612ZM7.78825 7.53146H11V6.83146H7.78825V7.53146ZM7.37605 7.26201C7.44776 7.42571 7.60953 7.53146 7.78825 7.53146V6.83146C7.88753 6.83146 7.97741 6.89022 8.01724 6.98116L7.37605 7.26201ZM7.25859 5.4738C7.15958 5.77895 6.73575 5.80018 6.60694 5.50612L7.24813 5.22527C7.11859 4.92952 6.69233 4.95087 6.59276 5.25777L7.25859 5.4738ZM5.53925 8.76501C5.66239 9.06863 6.09733 9.05287 6.19839 8.74142L5.53256 8.52538C5.63303 8.2157 6.0655 8.20003 6.18793 8.50192L5.53925 8.76501ZM4.86519 5.48573C4.75567 5.78578 4.334 5.79325 4.21394 5.49723L4.86262 5.23414C4.74187 4.93643 4.31778 4.94394 4.20763 5.24571L4.86519 5.48573ZM3.93642 7.16783C4.12545 7.16783 4.29433 7.04969 4.35914 6.87213L3.70158 6.63211C3.73759 6.53346 3.83141 6.46783 3.93642 6.46783V7.16783Z" fill="#207DFF"/>
</g>
</svg>
