<svg width="15" height="15" viewBox="0 0 15 15" fill="none" xmlns="http://www.w3.org/2000/svg">
<g id="Group 1707480526">
<g id="Group 1707480523">
<g id="Group 1707480524">
<g id="Group 1707480525">
<path id="R" d="M3.6517 13C3.31529 13 3.09375 12.7699 3.09375 12.4164V1.58356C3.09375 1.23014 3.30708 1 3.6517 1H7.27016C9.58401 1 11.0609 2.35616 11.0609 4.46849C11.0609 6.14521 10.1091 7.41096 8.52555 7.82192L11.5938 13C11.6758 13.1562 11.7168 13.2712 11.7168 13.4027C11.7168 13.6986 11.4707 13.9205 11.1425 13.9205C10.8881 13.9205 10.7404 13.8219 10.6009 13.5589L7.36042 8.00274C7.31939 8.00274 7.23734 8.00274 7.1799 8.00274H4.20965V12.4164C4.20965 12.7699 3.98811 13 3.6517 13ZM4.20965 7.00822H7.1799C8.90298 7.00822 9.90401 6.08767 9.90401 4.50137C9.90401 2.93151 8.86196 2.00274 7.13888 2.00274H4.20965V7.00822Z" fill="#207DFF"/>
<path id="Vector 180" d="M11.9209 10.0006L7.52117 13.269" stroke="#207DFF" stroke-linecap="round"/>
</g>
</g>
</g>
</g>
</svg>
