<svg width="16" height="15" viewBox="0 0 16 15" fill="none" xmlns="http://www.w3.org/2000/svg">
<g id="receipt-outline 1" clip-path="url(#clip0_3532_7230)">
<path id="Vector" d="M5.4873 9.58702V1.36963L6.40035 1.82615L7.31339 1.36963L8.22472 1.82615L9.14832 1.36963L10.0525 1.82615L10.9596 1.36963L11.8706 1.82615L12.7917 1.36963L13.705 1.82615L14.6177 1.36963V7.76093" stroke="#207DFF" stroke-width="0.8" stroke-linejoin="round"/>
<path id="Vector_2" d="M14.6176 7.76074V10.9564C14.6176 11.5618 14.3771 12.1424 13.949 12.5704C13.521 12.9985 12.9404 13.239 12.335 13.239M12.335 13.239C11.7296 13.239 11.149 12.9985 10.7209 12.5704C10.2929 12.1424 10.0524 11.5618 10.0524 10.9564V9.58683H2.2915C2.2314 9.5863 2.1718 9.59774 2.11617 9.62049C2.06054 9.64325 2.01 9.67685 1.9675 9.71935C1.925 9.76185 1.8914 9.81239 1.86864 9.86802C1.84589 9.92365 1.83445 9.98325 1.83498 10.0434C1.83498 11.8694 2.02729 13.239 4.11759 13.239H12.335Z" stroke="#207DFF" stroke-width="0.8" stroke-linejoin="round"/>
<path id="Vector_3" d="M7.31348 4.10889H12.7917M9.13956 6.3915H12.7917" stroke="#207DFF" stroke-width="0.8" stroke-linecap="round" stroke-linejoin="round"/>
</g>
<defs>
<clipPath id="clip0_3532_7230">
<rect width="14.6087" height="14.6087" fill="white" transform="translate(0.921875)"/>
</clipPath>
</defs>
</svg>
