<svg width="18" height="18" viewBox="0 0 18 18" fill="none" xmlns="http://www.w3.org/2000/svg">
<path fill-rule="evenodd" clip-rule="evenodd" d="M9 0.5625C9.18648 0.5625 9.36532 0.636579 9.49718 0.768441C9.62905 0.900302 9.70312 1.07914 9.70312 1.26562V8.29688H16.7344C16.9209 8.29688 17.0997 8.37095 17.2316 8.50282C17.3634 8.63468 17.4375 8.81352 17.4375 9C17.4375 9.18648 17.3634 9.36532 17.2316 9.49718C17.0997 9.62905 16.9209 9.70312 16.7344 9.70312H9.70312V16.7344C9.70312 16.9209 9.62905 17.0997 9.49718 17.2316C9.36532 17.3634 9.18648 17.4375 9 17.4375C8.81352 17.4375 8.63468 17.3634 8.50282 17.2316C8.37095 17.0997 8.29688 16.9209 8.29688 16.7344V9.70312H1.26562C1.07914 9.70312 0.900302 9.62905 0.768441 9.49718C0.636579 9.36532 0.5625 9.18648 0.5625 9C0.5625 8.81352 0.636579 8.63468 0.768441 8.50282C0.900302 8.37095 1.07914 8.29688 1.26562 8.29688H8.29688V1.26562C8.29688 1.07914 8.37095 0.900302 8.50282 0.768441C8.63468 0.636579 8.81352 0.5625 9 0.5625Z" fill="black"/>
</svg>
