<svg width="20" height="20" viewBox="0 0 20 20" fill="none" xmlns="http://www.w3.org/2000/svg">
<path d="M5.31222 5.625C5.46535 7.69023 7.03097 9.375 8.74972 9.375C10.4685 9.375 12.0368 7.69063 12.1872 5.625C12.3435 3.47656 10.82 1.875 8.74972 1.875C6.67941 1.875 5.15597 3.51562 5.31222 5.625Z" stroke="#207DFF" stroke-linecap="round" stroke-linejoin="round"/>
<path d="M8.74957 11.875C12.148 11.875 15.5972 13.75 16.2355 17.2891C16.3136 17.7156 16.0711 18.125 15.6242 18.125H1.87457C1.4277 18.125 1.18629 17.7156 1.26324 17.2891C1.90192 13.75 5.35113 11.875 8.74957 11.875Z" stroke="#207DFF" stroke-miterlimit="10"/>
<path d="M16.5625 6.875V11.25M14.375 9.0625H18.75" stroke="#36D5AA" stroke-linecap="round" stroke-linejoin="round"/>
</svg>
