<svg width="22" height="22" viewBox="0 0 22 22" fill="none" xmlns="http://www.w3.org/2000/svg">
<path d="M19.4335 10.2671H18.3335V8.43379C18.3335 7.22012 17.3472 6.23379 16.1335 6.23379H14.6669C13.4532 6.23379 12.4669 7.22012 12.4669 8.43379V10.2671H6.96686V9.53379H9.16686C9.36853 9.53379 9.53353 9.36879 9.53353 9.16712V5.50046C9.53353 5.29879 9.36853 5.13379 9.16686 5.13379H4.03353C3.83186 5.13379 3.66686 5.29879 3.66686 5.50046V9.16712C3.66686 9.36879 3.83186 9.53379 4.03353 9.53379H6.23353V10.2671H2.56686C2.3652 10.2671 2.2002 10.4321 2.2002 10.6338V19.4338C2.2002 19.6355 2.3652 19.8005 2.56686 19.8005H19.4335C19.6352 19.8005 19.8002 19.6355 19.8002 19.4338V10.6338C19.8002 10.4321 19.6352 10.2671 19.4335 10.2671ZM13.2002 8.43379C13.2002 7.62346 13.8565 6.96712 14.6669 6.96712H16.1335C16.9439 6.96712 17.6002 7.62346 17.6002 8.43379V10.2671H13.2002V8.43379ZM4.4002 8.80046V5.86712H8.8002V8.80046H4.4002ZM19.0669 19.0671H2.93353V12.8338H19.0669V19.0671ZM19.0669 12.1005H2.93353V11.0005H12.8335H17.9669H19.0669V12.1005Z" fill="#207DFF"/>
<path d="M17.2331 4.03353C17.2331 3.02153 16.4117 2.2002 15.3997 2.2002C14.3877 2.2002 13.5664 3.02153 13.5664 4.03353C13.5664 5.04553 14.3877 5.86686 15.3997 5.86686C16.4117 5.86686 17.2331 5.04553 17.2331 4.03353ZM14.2997 4.03353C14.2997 3.42853 14.7947 2.93353 15.3997 2.93353C16.0047 2.93353 16.4997 3.42853 16.4997 4.03353C16.4997 4.63853 16.0047 5.13353 15.3997 5.13353C14.7947 5.13353 14.2997 4.63853 14.2997 4.03353Z" fill="#207DFF"/>
<path d="M9.16647 17.2336H9.8998V17.9669C9.8998 18.1686 10.0648 18.3336 10.2665 18.3336H11.7331C11.9348 18.3336 12.0998 18.1686 12.0998 17.9669V17.2336H12.8331C13.0348 17.2336 13.1998 17.0686 13.1998 16.8669V15.4003C13.1998 15.1986 13.0348 15.0336 12.8331 15.0336H12.0998V14.3003C12.0998 14.0986 11.9348 13.9336 11.7331 13.9336H10.2665C10.0648 13.9336 9.8998 14.0986 9.8998 14.3003V15.0336H9.16647C8.9648 15.0336 8.7998 15.1986 8.7998 15.4003V16.8669C8.7998 17.0686 8.9648 17.2336 9.16647 17.2336ZM9.53314 15.7669H10.2665C10.4681 15.7669 10.6331 15.6019 10.6331 15.4003V14.6669H11.3665V15.4003C11.3665 15.6019 11.5315 15.7669 11.7331 15.7669H12.4665V16.5003H11.7331C11.5315 16.5003 11.3665 16.6653 11.3665 16.8669V17.6003H10.6331V16.8669C10.6331 16.6653 10.4681 16.5003 10.2665 16.5003H9.53314V15.7669Z" fill="#17CF9D"/>
</svg>
