<svg width="22" height="22" viewBox="0 0 22 22" fill="none" xmlns="http://www.w3.org/2000/svg">
<path fill-rule="evenodd" clip-rule="evenodd" d="M7.79159 11.4587H6.87492V12.3753H7.79159V11.4587ZM6.87492 10.542C6.36864 10.542 5.95825 10.9524 5.95825 11.4587V12.3753C5.95825 12.8816 6.36864 13.292 6.87492 13.292H7.79159C8.29786 13.292 8.70825 12.8816 8.70825 12.3753V11.4587C8.70825 10.9524 8.29786 10.542 7.79159 10.542H6.87492Z" fill="#36D5AA"/>
<path fill-rule="evenodd" clip-rule="evenodd" d="M11.4583 11.4587H10.5417V12.3753H11.4583V11.4587ZM10.5417 10.542C10.0354 10.542 9.625 10.9524 9.625 11.4587V12.3753C9.625 12.8816 10.0354 13.292 10.5417 13.292H11.4583C11.9646 13.292 12.375 12.8816 12.375 12.3753V11.4587C12.375 10.9524 11.9646 10.542 11.4583 10.542H10.5417Z" fill="#36D5AA"/>
<path fill-rule="evenodd" clip-rule="evenodd" d="M15.1251 11.4587H14.2084V12.3753H15.1251V11.4587ZM14.2084 10.542C13.7021 10.542 13.2917 10.9524 13.2917 11.4587V12.3753C13.2917 12.8816 13.7021 13.292 14.2084 13.292H15.1251C15.6314 13.292 16.0417 12.8816 16.0417 12.3753V11.4587C16.0417 10.9524 15.6314 10.542 15.1251 10.542H14.2084Z" fill="#36D5AA"/>
<path fill-rule="evenodd" clip-rule="evenodd" d="M7.79159 15.1247H6.87492V16.0413H7.79159V15.1247ZM6.87492 14.208C6.36864 14.208 5.95825 14.6184 5.95825 15.1247V16.0413C5.95825 16.5476 6.36864 16.958 6.87492 16.958H7.79159C8.29786 16.958 8.70825 16.5476 8.70825 16.0413V15.1247C8.70825 14.6184 8.29786 14.208 7.79159 14.208H6.87492Z" fill="#36D5AA"/>
<path fill-rule="evenodd" clip-rule="evenodd" d="M11.4583 15.1247H10.5417V16.0413H11.4583V15.1247ZM10.5417 14.208C10.0354 14.208 9.625 14.6184 9.625 15.1247V16.0413C9.625 16.5476 10.0354 16.958 10.5417 16.958H11.4583C11.9646 16.958 12.375 16.5476 12.375 16.0413V15.1247C12.375 14.6184 11.9646 14.208 11.4583 14.208H10.5417Z" fill="#36D5AA"/>
<path fill-rule="evenodd" clip-rule="evenodd" d="M15.1251 15.1247H14.2084V16.0413H15.1251V15.1247ZM14.2084 14.208C13.7021 14.208 13.2917 14.6184 13.2917 15.1247V16.0413C13.2917 16.5476 13.7021 16.958 14.2084 16.958H15.1251C15.6314 16.958 16.0417 16.5476 16.0417 16.0413V15.1247C16.0417 14.6184 15.6314 14.208 15.1251 14.208H14.2084Z" fill="#36D5AA"/>
<path fill-rule="evenodd" clip-rule="evenodd" d="M4.58325 5.04167C4.33012 5.04167 4.12492 5.24686 4.12492 5.5V17.875C4.12492 18.1281 4.33012 18.3333 4.58325 18.3333H17.4166C17.6691 18.3333 17.8749 18.1278 17.8749 17.874V5.50101C17.8749 5.24723 17.6691 5.04167 17.4166 5.04167H16.0416V4.125H17.4166C18.1766 4.125 18.7916 4.74224 18.7916 5.50101V17.874C18.7916 18.6328 18.1766 19.25 17.4166 19.25H4.58325C3.82386 19.25 3.20825 18.6344 3.20825 17.875V5.5C3.20825 4.74059 3.82386 4.125 4.58325 4.125H6.87492V5.04167H4.58325ZM14.2083 5.04167H8.70825V4.125H14.2083V5.04167Z" fill="#207DFF"/>
<path fill-rule="evenodd" clip-rule="evenodd" d="M17.875 9.16667H4.125V8.25H17.875V9.16667Z" fill="#207DFF"/>
<path d="M6.875 3.20833C6.875 2.9552 7.0802 2.75 7.33333 2.75C7.58647 2.75 7.79167 2.9552 7.79167 3.20833V6.41667C7.79167 6.6698 7.58647 6.875 7.33333 6.875C7.0802 6.875 6.875 6.6698 6.875 6.41667V3.20833Z" fill="#207DFF"/>
<path d="M14.2083 3.20833C14.2083 2.9552 14.4134 2.75 14.6666 2.75C14.9197 2.75 15.1249 2.9552 15.1249 3.20833V6.41667C15.1249 6.6698 14.9197 6.875 14.6666 6.875C14.4134 6.875 14.2083 6.6698 14.2083 6.41667V3.20833Z" fill="#207DFF"/>
</svg>
