<svg width="45" height="43" viewBox="0 0 45 43" fill="none" xmlns="http://www.w3.org/2000/svg">
<g id="Objects" clip-path="url(#clip0_3454_16488)">
<path id="Vector" d="M42.8734 21.4888C42.877 24.3479 42.3096 27.1788 41.2048 29.8147C40.0999 32.4506 38.4799 34.8381 36.4402 36.8367C36.091 37.1802 35.7302 37.511 35.358 37.8292C35.2097 37.9563 35.0598 38.0812 34.9084 38.204C34.8925 38.2171 34.8771 38.2293 34.8617 38.2414C34.3305 38.6708 33.779 39.0743 33.207 39.4518C29.7104 41.7521 25.6193 42.9776 21.4369 42.9776C17.2546 42.9776 13.1634 41.7521 9.66684 39.4518C9.09488 39.0752 8.54317 38.6717 8.0117 38.2414C7.99581 38.2293 7.98039 38.2171 7.96497 38.204C7.81326 38.0812 7.66342 37.9563 7.51544 37.8292C7.14348 37.5107 6.78273 37.1799 6.4332 36.8367C4.3935 34.8381 2.7735 32.4506 1.66864 29.8147C0.563791 27.1788 -0.00356533 24.3479 1.68576e-05 21.4888C1.68576e-05 9.62067 9.59768 0 21.4374 0C33.2771 0 42.8734 9.62067 42.8734 21.4888Z" fill="#EEEEEE"/>
<path id="Vector_2" d="M38 37.5032C37.3868 38.0015 36.7499 38.4698 36.0896 38.908C32.0525 41.5776 27.3291 42.9999 22.5003 42.9999C17.6715 42.9999 12.948 41.5776 8.91097 38.908C8.2506 38.4709 7.61361 38.0026 7 37.5032C7.1885 35.713 7.86767 34.0111 8.96152 32.5877C10.0554 31.1644 11.5207 30.0758 13.1936 29.4439L18.797 27.327V25.2541C18.3947 24.9981 18.0138 24.7094 17.6581 24.3908C16.2185 23.2964 20.5761 18.2794 20.5761 18.2794C20.5761 18.2794 21.7791 30.4104 20 18.279L21.7318 19.4396C21.7318 13.775 16.8462 16.332 22.5003 16.332C28.1544 16.332 22.8864 13.1953 22.8864 18.8599C22.8864 24.5246 25.7728 13.0796 25.7728 18.8611C25.7728 24.6426 24.561 21.1268 24.561 21.1268C24.561 21.1268 28.3414 25.6176 27.1868 23.2964C26.836 23.6092 28.3414 24.3908 26.2035 25.2525V27.327L31.8069 29.4439C33.4797 30.0759 34.9449 31.1645 36.0386 32.5879C37.1324 34.0112 37.8115 35.7131 38 37.5032Z" fill="#D8D8D8" fill-opacity="0.8"/>
<circle id="Ellipse 1514" cx="22.5" cy="18.5" r="7.5" fill="#DDDDDD"/>
</g>
<defs>
<clipPath id="clip0_3454_16488">
<rect width="45" height="43" fill="white"/>
</clipPath>
</defs>
</svg>
