<svg width="17" height="17" viewBox="0 0 17 17" fill="none" xmlns="http://www.w3.org/2000/svg">
<path fill-rule="evenodd" clip-rule="evenodd" d="M1.90654 0.607143C1.20457 0.607143 0.635514 1.1508 0.635514 1.82143V7.4375H3.33645V0.607143H1.90654ZM3.97196 0.607143V15.1786C3.97196 15.8492 4.54102 16.3929 5.24299 16.3929H15.0935C15.7954 16.3929 16.3645 15.8492 16.3645 15.1786V13.2054H14.7757C14.6002 13.2054 14.4579 13.0694 14.4579 12.9018V1.82143C14.4579 1.1508 13.8889 0.607143 13.1869 0.607143H3.97196ZM3.33645 8.04464H0.317757C0.142265 8.04464 0 7.90873 0 7.74107V1.82143C0 0.815482 0.853588 0 1.90654 0H13.1869C14.2399 0 15.0935 0.815481 15.0935 1.82143V12.5982H16.6822C16.8577 12.5982 17 12.7341 17 12.9018V15.1786C17 16.1845 16.1464 17 15.0935 17H5.24299C4.19004 17 3.33645 16.1845 3.33645 15.1786V8.04464Z" fill="#207DFF"/>
<path fill-rule="evenodd" clip-rule="evenodd" d="M7.70444 12.7045C7.76478 12.6385 7.85207 12.6006 7.94383 12.6006H14.7756V13.2077H8.30786L8.36474 13.6062C8.59476 15.2178 7.45129 16.7151 5.77475 16.9978L5.66431 16.3998C7.00473 16.1739 7.91896 14.9767 7.73505 13.6883L7.62898 12.9452C7.61659 12.8583 7.6441 12.7706 7.70444 12.7045Z" fill="#207DFF"/>
<path fill-rule="evenodd" clip-rule="evenodd" d="M6.9727 9.68668C6.9727 9.87446 6.82048 10.0267 6.6327 10.0267H5.01505C4.82727 10.0267 4.67505 9.87446 4.67505 9.68668C4.67505 9.4989 4.82727 9.34668 5.01505 9.34668H6.6327C6.82048 9.34668 6.9727 9.4989 6.9727 9.68668Z" fill="#17CF9D"/>
<path fill-rule="evenodd" clip-rule="evenodd" d="M13.7068 9.68668C13.7068 9.87446 13.5545 10.0267 13.3668 10.0267H8.17594C7.98816 10.0267 7.83594 9.87446 7.83594 9.68668C7.83594 9.4989 7.98816 9.34668 8.17594 9.34668H13.3668C13.5545 9.34668 13.7068 9.4989 13.7068 9.68668Z" fill="#17CF9D"/>
<path fill-rule="evenodd" clip-rule="evenodd" d="M13.6915 11.38C13.6915 11.5678 13.5392 11.72 13.3515 11.72H11.7338C11.546 11.72 11.3938 11.5678 11.3938 11.38C11.3938 11.1923 11.546 11.04 11.7338 11.04H13.3515C13.5392 11.04 13.6915 11.1923 13.6915 11.38Z" fill="#17CF9D"/>
<path fill-rule="evenodd" clip-rule="evenodd" d="M10.5444 11.38C10.5444 11.5678 10.3922 11.72 10.2044 11.72H5.01358C4.82581 11.72 4.67358 11.5678 4.67358 11.38C4.67358 11.1923 4.82581 11.04 5.01358 11.04H10.2044C10.3922 11.04 10.5444 11.1923 10.5444 11.38Z" fill="#17CF9D"/>
<path d="M8.40942 5.63281L10.1907 8H9.34692L7.43286 5.45703V5.15625H8.03833C8.81567 5.15625 9.33911 4.83984 9.42114 4.32031H7.43286V3.78906H9.42114C9.34692 3.26953 8.93286 2.96094 8.30005 2.96094H7.43677V2.36328H11.2766V2.91016H9.6438V2.97266C9.90552 3.15234 10.0774 3.44922 10.1125 3.78906H11.2766V4.32031H10.1047C9.99536 5.0625 9.29224 5.63281 8.48364 5.63281H8.40942Z" fill="#17CF9D"/>
</svg>
