<svg width="17" height="17" viewBox="0 0 17 17" fill="none" xmlns="http://www.w3.org/2000/svg">
<path d="M13.8732 7.91406L13.6384 8.24557C14.7523 8.98048 15.4172 10.2006 15.4172 11.5094H15.8331C15.8331 10.068 15.1004 8.72388 13.8732 7.91406Z" fill="#17CF9D"/>
<path d="M12.813 6.21905V1.60094H12.8602C13.3177 1.60094 13.692 1.24221 13.692 0.80047C13.692 0.358747 13.3177 0 12.8602 0H9.77406C9.31656 0 8.94222 0.358747 8.94222 0.80047C8.94222 1.24221 9.31656 1.60094 9.77406 1.60094H9.81843V6.21905C7.34786 6.86694 5.63428 9.01937 5.63428 11.5091C5.63428 14.5129 8.20189 17 11.3185 17C14.4019 17 17 14.545 17 11.5091C17 9.01937 15.2864 6.86694 12.813 6.21905ZM6.0918 12.1061C6.06683 11.9107 6.0502 11.7099 6.0502 11.5091C6.0502 9.15323 7.70556 7.12125 10.0763 6.56976C10.1678 6.54835 10.2344 6.46802 10.2344 6.37433V1.60094H12.3971V6.37433C12.3971 6.46802 12.4637 6.54835 12.5552 6.56976C14.9287 7.12125 16.584 9.15323 16.584 11.5091C16.584 11.7099 16.5674 11.9107 16.5452 12.1061H6.0918Z" fill="#207DFF"/>
<path d="M5.71197 0.73622C5.71197 0.329302 5.3709 0 4.94945 0H0.762518C0.341065 0 0 0.329302 0 0.73622V1.00394C0 1.41087 0.341065 1.74016 0.762518 1.74016H0.91226V15.1206C0.91226 16.1567 1.7829 17 2.85597 17C3.92904 17 4.79971 16.1567 4.79971 15.1206V1.74016H4.94945C5.3709 1.74016 5.71197 1.41087 5.71197 1.00394V0.73622ZM4.38379 8.9578H1.32818V1.74284H4.38379V8.9578Z" fill="#207DFF"/>
<path d="M9.32356 9.83977C9.7397 9.83977 10.077 9.51406 10.077 9.11227C10.077 8.71048 9.7397 8.38477 9.32356 8.38477C8.90742 8.38477 8.57007 8.71048 8.57007 9.11227C8.57007 9.51406 8.90742 9.83977 9.32356 9.83977Z" fill="#17CF9D"/>
<path d="M2.51277 6.57415C2.92891 6.57415 3.26626 6.24843 3.26626 5.84664C3.26626 5.44485 2.92891 5.11914 2.51277 5.11914C2.09663 5.11914 1.75928 5.44485 1.75928 5.84664C1.75928 6.24843 2.09663 6.57415 2.51277 6.57415Z" fill="#17CF9D"/>
<path d="M11.3175 8.2968C11.7336 8.2968 12.0709 7.97109 12.0709 7.5693C12.0709 7.16751 11.7336 6.8418 11.3175 6.8418C10.9013 6.8418 10.564 7.16751 10.564 7.5693C10.564 7.97109 10.9013 8.2968 11.3175 8.2968Z" fill="#17CF9D"/>
<path d="M2.85604 3.98334C3.27218 3.98334 3.60953 3.65762 3.60953 3.25583C3.60953 2.85404 3.27218 2.52832 2.85604 2.52832C2.43989 2.52832 2.10254 2.85404 2.10254 3.25583C2.10254 3.65762 2.43989 3.98334 2.85604 3.98334Z" fill="#17CF9D"/>
<path d="M11.1569 11.0457C11.4306 11.0457 11.6524 10.8315 11.6524 10.5673C11.6524 10.3031 11.4306 10.0889 11.1569 10.0889C10.8832 10.0889 10.6614 10.3031 10.6614 10.5673C10.6614 10.8315 10.8832 11.0457 11.1569 11.0457Z" fill="#17CF9D"/>
<path d="M2.51286 8.43246C2.78654 8.43246 3.00839 8.21826 3.00839 7.95402C3.00839 7.68979 2.78654 7.47559 2.51286 7.47559C2.23919 7.47559 2.01733 7.68979 2.01733 7.95402C2.01733 8.21826 2.23919 8.43246 2.51286 8.43246Z" fill="#17CF9D"/>
</svg>
