<svg width="15" height="15" viewBox="0 0 15 15" fill="none" xmlns="http://www.w3.org/2000/svg">
<g id="calendar-x" clip-path="url(#clip0_3454_19842)">
<path id="Vector" d="M5.76271 6.69924C5.80626 6.65558 5.85798 6.62095 5.91493 6.59732C5.97188 6.57369 6.03293 6.56152 6.09459 6.56152C6.15624 6.56152 6.2173 6.57369 6.27424 6.59732C6.33119 6.62095 6.38292 6.65558 6.42646 6.69924L7.50084 7.77455L8.57521 6.69924C8.66323 6.61122 8.78261 6.56177 8.90709 6.56177C9.03156 6.56177 9.15094 6.61122 9.23896 6.69924C9.32698 6.78725 9.37643 6.90663 9.37643 7.03111C9.37643 7.15559 9.32698 7.27497 9.23896 7.36299L8.16365 8.43736L9.23896 9.51174C9.32698 9.59975 9.37643 9.71913 9.37643 9.84361C9.37643 9.96809 9.32698 10.0875 9.23896 10.1755C9.15094 10.2635 9.03156 10.313 8.90709 10.313C8.78261 10.313 8.66323 10.2635 8.57521 10.1755L7.50084 9.10017L6.42646 10.1755C6.33844 10.2635 6.21907 10.313 6.09459 10.313C5.97011 10.313 5.85073 10.2635 5.76271 10.1755C5.67469 10.0875 5.62525 9.96809 5.62525 9.84361C5.62525 9.71913 5.67469 9.59975 5.76271 9.51174L6.83803 8.43736L5.76271 7.36299C5.71906 7.31944 5.68443 7.26772 5.66079 7.21077C5.63716 7.15382 5.625 7.09277 5.625 7.03111C5.625 6.96945 5.63716 6.9084 5.66079 6.85145C5.68443 6.79451 5.71906 6.74278 5.76271 6.69924Z" fill="black"/>
<path id="Vector_2" d="M3.28125 0C3.40557 0 3.5248 0.049386 3.61271 0.137294C3.70061 0.225201 3.75 0.34443 3.75 0.46875V0.9375H11.25V0.46875C11.25 0.34443 11.2994 0.225201 11.3873 0.137294C11.4752 0.049386 11.5944 0 11.7188 0C11.8431 0 11.9623 0.049386 12.0502 0.137294C12.1381 0.225201 12.1875 0.34443 12.1875 0.46875V0.9375H13.125C13.6223 0.9375 14.0992 1.13504 14.4508 1.48667C14.8025 1.83831 15 2.31522 15 2.8125V13.125C15 13.6223 14.8025 14.0992 14.4508 14.4508C14.0992 14.8025 13.6223 15 13.125 15H1.875C1.37772 15 0.900806 14.8025 0.549175 14.4508C0.197544 14.0992 0 13.6223 0 13.125V2.8125C0 2.31522 0.197544 1.83831 0.549175 1.48667C0.900806 1.13504 1.37772 0.9375 1.875 0.9375H2.8125V0.46875C2.8125 0.34443 2.86189 0.225201 2.94979 0.137294C3.0377 0.049386 3.15693 0 3.28125 0V0ZM0.9375 3.75V13.125C0.9375 13.3736 1.03627 13.6121 1.21209 13.7879C1.3879 13.9637 1.62636 14.0625 1.875 14.0625H13.125C13.3736 14.0625 13.6121 13.9637 13.7879 13.7879C13.9637 13.6121 14.0625 13.3736 14.0625 13.125V3.75H0.9375Z" fill="black"/>
</g>
<defs>
<clipPath id="clip0_3454_19842">
<rect width="15" height="15" fill="white"/>
</clipPath>
</defs>
</svg>
