<svg width="22" height="22" viewBox="0 0 22 22" fill="none" xmlns="http://www.w3.org/2000/svg">
<g id="check-square-fill" clip-path="url(#clip0_3454_17402)">
<path id="Vector" d="M2.75 0C2.02065 0 1.32118 0.289731 0.805456 0.805456C0.289731 1.32118 0 2.02065 0 2.75L0 19.25C0 19.9793 0.289731 20.6788 0.805456 21.1945C1.32118 21.7103 2.02065 22 2.75 22H19.25C19.9793 22 20.6788 21.7103 21.1945 21.1945C21.7103 20.6788 22 19.9793 22 19.25V2.75C22 2.02065 21.7103 1.32118 21.1945 0.805456C20.6788 0.289731 19.9793 0 19.25 0L2.75 0ZM16.5413 6.83375C16.7322 7.02453 16.8408 7.2826 16.8436 7.55254C16.8465 7.82247 16.7433 8.08276 16.5564 8.2775L11.0674 15.1388C10.973 15.2404 10.8592 15.3219 10.7326 15.3785C10.606 15.4351 10.4693 15.4656 10.3307 15.4682C10.1921 15.4707 10.0544 15.4453 9.92579 15.3934C9.79721 15.3416 9.68041 15.2643 9.58237 15.1662L5.9455 11.528C5.84418 11.4336 5.76292 11.3197 5.70655 11.1932C5.65019 11.0667 5.61988 10.9302 5.61744 10.7917C5.61499 10.6533 5.64046 10.5157 5.69233 10.3873C5.7442 10.2589 5.8214 10.1422 5.91932 10.0443C6.01725 9.9464 6.13389 9.8692 6.2623 9.81733C6.39071 9.76546 6.52825 9.73999 6.66672 9.74244C6.80519 9.74488 6.94174 9.77519 7.06824 9.83155C7.19474 9.88791 7.30859 9.96918 7.403 10.0705L10.2823 12.9484L15.0576 6.864C15.1518 6.76221 15.2655 6.68045 15.392 6.62361C15.5184 6.56677 15.6551 6.53602 15.7937 6.53319C15.9323 6.53037 16.0701 6.55553 16.1988 6.60717C16.3275 6.65881 16.4444 6.73588 16.5426 6.83375H16.5413Z" fill="#17CF9D"/>
</g>
<defs>
<clipPath id="clip0_3454_17402">
<rect width="22" height="22" fill="white"/>
</clipPath>
</defs>
</svg>
