<svg width="12" height="12" viewBox="0 0 12 12" fill="none" xmlns="http://www.w3.org/2000/svg">
<g id="pencil-square" clip-path="url(#clip0_2696_31325)">
<path id="Vector" d="M11.6265 1.45529C11.6966 1.52559 11.736 1.62079 11.736 1.72004C11.736 1.8193 11.6966 1.9145 11.6265 1.98479L10.8443 2.76779L9.34428 1.26779L10.1265 0.484795C10.1969 0.414493 10.2922 0.375 10.3917 0.375C10.4911 0.375 10.5865 0.414493 10.6568 0.484795L11.6265 1.45455V1.45529ZM10.314 3.29729L8.81403 1.79729L3.70428 6.90779C3.663 6.94906 3.63193 6.9994 3.61353 7.05479L3.00978 8.86529C2.99883 8.8983 2.99728 8.9337 3.00529 8.96754C3.01331 9.00138 3.03057 9.03232 3.05516 9.05691C3.07975 9.0815 3.1107 9.09877 3.14453 9.10678C3.17837 9.1148 3.21377 9.11324 3.24678 9.10229L5.05728 8.49854C5.1126 8.48037 5.16293 8.44955 5.20428 8.40854L10.314 3.29804V3.29729Z" fill="#232323"/>
<path id="Vector_2" fill-rule="evenodd" clip-rule="evenodd" d="M0.75 10.125C0.75 10.4234 0.868526 10.7095 1.0795 10.9205C1.29048 11.1315 1.57663 11.25 1.875 11.25H10.125C10.4234 11.25 10.7095 11.1315 10.9205 10.9205C11.1315 10.7095 11.25 10.4234 11.25 10.125V5.625C11.25 5.52554 11.2105 5.43016 11.1402 5.35984C11.0698 5.28951 10.9745 5.25 10.875 5.25C10.7755 5.25 10.6802 5.28951 10.6098 5.35984C10.5395 5.43016 10.5 5.52554 10.5 5.625V10.125C10.5 10.2245 10.4605 10.3198 10.3902 10.3902C10.3198 10.4605 10.2245 10.5 10.125 10.5H1.875C1.77554 10.5 1.68016 10.4605 1.60984 10.3902C1.53951 10.3198 1.5 10.2245 1.5 10.125V1.875C1.5 1.77554 1.53951 1.68016 1.60984 1.60984C1.68016 1.53951 1.77554 1.5 1.875 1.5H6.75C6.84946 1.5 6.94484 1.46049 7.01517 1.39017C7.08549 1.31984 7.125 1.22446 7.125 1.125C7.125 1.02554 7.08549 0.930161 7.01517 0.859835C6.94484 0.789509 6.84946 0.75 6.75 0.75H1.875C1.57663 0.75 1.29048 0.868526 1.0795 1.0795C0.868526 1.29048 0.75 1.57663 0.75 1.875V10.125Z" fill="#232323"/>
</g>
<defs>
<clipPath id="clip0_2696_31325">
<rect width="12" height="12" fill="white"/>
</clipPath>
</defs>
</svg>
