<svg width="22" height="22" viewBox="0 0 22 22" fill="none" xmlns="http://www.w3.org/2000/svg">
<path fill-rule="evenodd" clip-rule="evenodd" d="M11.2291 13.4079C11.2291 12.979 11.5266 12.6074 11.9452 12.5135C12.7217 12.3394 13.5718 12.0337 14.325 11.5531C15.5176 10.792 16.5 9.5654 16.5 7.72079C16.5 6.09045 15.8786 4.85749 14.9054 4.02699C13.9439 3.20651 12.672 2.8057 11.3961 2.75568C10.1886 2.70835 8.83585 2.99393 7.72512 3.62947C6.62742 4.25752 5.79985 5.20298 5.51101 6.49388C5.45578 6.74092 5.6112 6.98595 5.85824 7.04122C6.10524 7.0965 6.35031 6.94103 6.40558 6.69403C6.83775 4.76239 9.05722 3.58137 11.3601 3.67165C12.4801 3.71555 13.5395 4.06643 14.3104 4.7243C15.0697 5.37225 15.5833 6.34561 15.5833 7.72079C15.5833 9.17618 14.832 10.1421 13.8319 10.7804C12.8191 11.4266 11.5809 11.7116 10.7388 11.7704C10.4987 11.7872 10.3125 11.9869 10.3125 12.2276V14.6668C10.3125 14.92 10.5177 15.1252 10.7708 15.1252C11.0239 15.1252 11.2291 14.92 11.2291 14.6668V13.4079ZM11.7058 15.675C11.9764 15.4239 12.1458 15.0651 12.1458 14.6668V13.4079C12.9996 13.2165 13.9548 12.8767 14.8181 12.3258C16.2032 11.4419 17.4166 9.95453 17.4166 7.72079C17.4166 5.8353 16.6876 4.3427 15.5005 3.32969C14.3483 2.34653 12.8637 1.89585 11.4319 1.83972C8.70866 1.73296 5.32813 3.11277 4.61648 6.29373C4.45068 7.0348 4.91701 7.76997 5.65809 7.9358C6.39917 8.10158 7.13433 7.63522 7.30011 6.89414C7.59679 5.56818 9.25793 4.50661 11.3242 4.58763C12.2873 4.62535 13.1344 4.92583 13.7154 5.42156C14.2613 5.88746 14.6666 6.60145 14.6666 7.72079C14.6666 8.79228 14.1409 9.49573 13.3388 10.0076C12.4873 10.551 11.4078 10.8047 10.675 10.8559C9.95455 10.9063 9.3958 11.5054 9.3958 12.2276V14.6668C9.3958 15.1268 9.62162 15.534 9.96839 15.7836C10.1942 15.9461 10.4713 16.0418 10.7708 16.0418C10.8489 16.0418 10.9254 16.0353 11 16.0228C11.2701 15.9775 11.5136 15.8534 11.7058 15.675Z" fill="#207DFF"/>
<path d="M11.0001 16.5C11.2993 16.5 11.5818 16.5717 11.8312 16.6988C12.426 17.0018 12.8334 17.62 12.8334 18.3333C12.8334 19.3458 12.0126 20.1667 11.0001 20.1667C9.98758 20.1667 9.16675 19.3458 9.16675 18.3333C9.16675 17.7018 9.48602 17.1449 9.97195 16.8152C10.2055 16.6567 10.4774 16.5508 10.7709 16.5142C10.846 16.5048 10.9225 16.5 11.0001 16.5Z" fill="#17CF9D"/>
</svg>
