<svg width="22" height="22" viewBox="0 0 22 22" fill="none" xmlns="http://www.w3.org/2000/svg">
<path fill-rule="evenodd" clip-rule="evenodd" d="M11.9166 15.125H13.5208C16.6849 15.125 19.2499 12.56 19.2499 9.39583C19.2499 6.23168 16.6849 3.66667 13.5208 3.66667H8.47908C5.31493 3.66667 2.74992 6.23168 2.74992 9.39583C2.74992 13.0233 5.14091 15.2413 7.75671 16.6037C9.0559 17.2803 10.3645 17.7176 11.3541 17.9856C11.5567 18.0405 11.7452 18.0881 11.9166 18.129V15.125ZM12.8333 19.25C12.8333 19.25 12.4867 19.1994 11.9166 19.0702C9.27484 18.4712 1.83325 16.1815 1.83325 9.39583C1.83325 5.72545 4.80871 2.75 8.47908 2.75H13.5208C17.1911 2.75 20.1666 5.72545 20.1666 9.39583C20.1666 13.0662 17.1911 16.0417 13.5208 16.0417H12.8333V19.25Z" fill="#207DFF"/>
<path fill-rule="evenodd" clip-rule="evenodd" d="M11 10.0833C11.2531 10.0833 11.4583 9.87814 11.4583 9.625C11.4583 9.37186 11.2531 9.16667 11 9.16667C10.7469 9.16667 10.5417 9.37186 10.5417 9.625C10.5417 9.87814 10.7469 10.0833 11 10.0833ZM11 11C11.7594 11 12.375 10.3844 12.375 9.625C12.375 8.86559 11.7594 8.25 11 8.25C10.2406 8.25 9.625 8.86559 9.625 9.625C9.625 10.3844 10.2406 11 11 11Z" fill="#17CF9D"/>
<path fill-rule="evenodd" clip-rule="evenodd" d="M14.6667 10.0833C14.9199 10.0833 15.1251 9.87814 15.1251 9.625C15.1251 9.37186 14.9199 9.16667 14.6667 9.16667C14.4136 9.16667 14.2084 9.37186 14.2084 9.625C14.2084 9.87814 14.4136 10.0833 14.6667 10.0833ZM14.6667 11C15.4262 11 16.0417 10.3844 16.0417 9.625C16.0417 8.86559 15.4262 8.25 14.6667 8.25C13.9073 8.25 13.2917 8.86559 13.2917 9.625C13.2917 10.3844 13.9073 11 14.6667 11Z" fill="#17CF9D"/>
<path fill-rule="evenodd" clip-rule="evenodd" d="M7.33325 10.0833C7.58639 10.0833 7.79159 9.87814 7.79159 9.625C7.79159 9.37186 7.58639 9.16667 7.33325 9.16667C7.08011 9.16667 6.87492 9.37186 6.87492 9.625C6.87492 9.87814 7.08011 10.0833 7.33325 10.0833ZM7.33325 11C8.09266 11 8.70825 10.3844 8.70825 9.625C8.70825 8.86559 8.09266 8.25 7.33325 8.25C6.57384 8.25 5.95825 8.86559 5.95825 9.625C5.95825 10.3844 6.57384 11 7.33325 11Z" fill="#17CF9D"/>
</svg>
