<svg width="15" height="15" viewBox="0 0 15 15" fill="none" xmlns="http://www.w3.org/2000/svg">
<g id="file-pdf-fill">
<path id="Vector" d="M5.17781 9.77281C5.30906 9.69594 5.4525 9.62094 5.60812 9.54969C5.47666 9.74569 5.33587 9.93529 5.18625 10.1178C4.92375 10.4337 4.71937 10.6016 4.59093 10.6541C4.58027 10.6586 4.56931 10.6623 4.55812 10.6653C4.54877 10.6523 4.54061 10.6385 4.53375 10.6241C4.48125 10.5209 4.48312 10.4216 4.57125 10.2866C4.67062 10.1319 4.87031 9.95469 5.17781 9.77281ZM7.47937 8.22875C7.36781 8.25219 7.25718 8.27562 7.14562 8.30187C7.31091 7.97813 7.46722 7.64988 7.61437 7.3175C7.76248 7.59216 7.922 7.86052 8.0925 8.12187C7.88906 8.15187 7.68375 8.1875 7.47937 8.22875ZM9.84656 9.10906C9.70096 8.99159 9.56462 8.86309 9.43875 8.72469C9.6525 8.72937 9.84562 8.74531 10.0125 8.77531C10.3097 8.82875 10.4494 8.91312 10.4981 8.97125C10.5135 8.98748 10.5222 9.0089 10.5225 9.03125C10.5192 9.09738 10.4999 9.16173 10.4662 9.21875C10.4473 9.26442 10.417 9.30446 10.3781 9.335C10.3588 9.34687 10.336 9.35183 10.3134 9.34906C10.2291 9.34625 10.0716 9.28719 9.84656 9.10906ZM7.76062 4.65969C7.72312 4.88844 7.65937 5.15094 7.57312 5.43687C7.54134 5.32981 7.51351 5.22161 7.48968 5.1125C7.41843 4.78156 7.40812 4.52187 7.44656 4.34187C7.48218 4.17594 7.54968 4.10937 7.63031 4.07656C7.67355 4.0575 7.71935 4.04487 7.76625 4.03906C7.77843 4.06719 7.7925 4.12531 7.79625 4.22469C7.80093 4.33906 7.78968 4.48438 7.76062 4.66063V4.65969Z" fill="#207DFF"/>
<path id="Vector_2" fill-rule="evenodd" clip-rule="evenodd" d="M3.68421 0H12.1053C12.6636 0 13.1991 0.197544 13.5939 0.549175C13.9887 0.900806 14.2105 1.37772 14.2105 1.875V13.125C14.2105 13.6223 13.9887 14.0992 13.5939 14.4508C13.1991 14.8025 12.6636 15 12.1053 15H3.68421C3.12586 15 2.59038 14.8025 2.19557 14.4508C1.80075 14.0992 1.57895 13.6223 1.57895 13.125V1.875C1.57895 1.37772 1.80075 0.900806 2.19557 0.549175C2.59038 0.197544 3.12586 0 3.68421 0V0ZM3.8579 10.9388C3.95263 11.1075 4.1 11.2603 4.31895 11.3316C4.53684 11.4019 4.75263 11.3691 4.92948 11.3034C5.26421 11.1816 5.5979 10.8947 5.90421 10.5666C6.25474 10.1906 6.62316 9.6975 6.97895 9.15094C7.66581 8.96957 8.36921 8.84221 9.08105 8.77031C9.39684 9.12937 9.72316 9.43875 10.0389 9.66094C10.3337 9.86719 10.6737 10.0387 11.0221 10.0519C11.2119 10.0602 11.3998 10.015 11.5589 9.9225C11.7221 9.82781 11.8432 9.69094 11.9316 9.5325C12.0263 9.36281 12.0842 9.18562 12.0768 9.00469C12.0702 8.8263 11.996 8.65516 11.8663 8.51906C11.6284 8.26594 11.2389 8.14406 10.8558 8.08313C10.391 8.01901 9.9194 8.00328 9.45053 8.03625C9.05459 7.53774 8.70936 7.00877 8.41895 6.45563C8.68211 5.83687 8.87895 5.25187 8.96632 4.77375C9.00421 4.56938 9.02421 4.37438 9.01684 4.19813C9.01554 4.02318 8.96984 3.85075 8.88316 3.69375C8.83322 3.6071 8.76226 3.53144 8.67541 3.47226C8.58856 3.41307 8.48801 3.37184 8.38105 3.35156C8.16842 3.31125 7.94948 3.35156 7.74842 3.42375C7.35158 3.56437 7.14211 3.86437 7.06316 4.19531C6.98632 4.51406 7.02105 4.88531 7.11158 5.26031C7.20421 5.64094 7.36211 6.05531 7.56421 6.47438C7.24091 7.19042 6.86755 7.88773 6.44632 8.56219C5.90383 8.7142 5.38093 8.91689 4.88632 9.16687C4.49684 9.37313 4.15053 9.61687 3.94211 9.90469C3.72105 10.2103 3.65263 10.5741 3.8579 10.9388Z" fill="#207DFF"/>
</g>
</svg>
