<svg width="15" height="12" viewBox="0 0 15 12" fill="none" xmlns="http://www.w3.org/2000/svg">
<g id="Group">
<g id="Group_2">
<path id="Vector" d="M13.3043 0H1.69654C0.760873 0 0 0.649128 0 1.44858V10.553C0 11.3516 0.760873 12 1.69654 12H13.3043C14.2399 12 15 11.3516 15 10.553V1.44858C15 0.649128 14.24 0 13.3043 0ZM9.69979 2.15432C10.6046 2.15432 11.3384 2.78061 11.3384 3.55276C11.3384 4.32492 10.6046 4.95121 9.69979 4.95121C8.79471 4.95121 8.06115 4.32492 8.06115 3.55276C8.06115 2.78061 8.79471 2.15432 9.69979 2.15432ZM12.7723 10.6616H7.49987H2.46238C2.00981 10.6616 1.80826 10.3822 2.01228 10.0374L4.82449 5.28383C5.02825 4.93912 5.4166 4.90836 5.69161 5.21505L8.51939 8.36882C8.79441 8.67555 9.27509 8.70165 9.59324 8.42684L10.285 7.829C10.6029 7.55419 11.0713 7.58822 11.3308 7.90451L13.1221 10.0882C13.381 10.405 13.2248 10.6616 12.7723 10.6616Z" fill="#207DFF"/>
</g>
</g>
</svg>
