<svg width="15" height="12" viewBox="0 0 15 12" fill="none" xmlns="http://www.w3.org/2000/svg">
<g id="Group">
<path id="Vector" d="M9.91914 6.9945C9.91914 8.30515 8.83397 9.37136 7.5 9.37136C6.16603 9.37136 5.08127 8.30515 5.08127 6.9945C5.08127 5.68385 6.16603 4.61764 7.5 4.61764C8.83397 4.61764 9.91914 5.68425 9.91914 6.9945ZM15 3.61947V10.3703C15 11.2703 14.2573 12 13.3414 12H1.65865C0.74266 12 0 11.2703 0 10.3703V3.61947C0 2.7195 0.74266 1.98981 1.65865 1.98981H3.69879V1.42595C3.69879 0.638419 4.34815 0 5.15011 0H9.84989C10.6518 0 11.3012 0.638419 11.3012 1.42595V1.98941H13.3414C14.2573 1.98981 15 2.7195 15 3.61947ZM11.1631 6.9945C11.1631 5.00998 9.51982 3.3954 7.5 3.3954C5.48059 3.3954 3.83729 5.00998 3.83729 6.9945C3.83729 8.97902 5.48059 10.5936 7.5 10.5936C9.51982 10.5936 11.1631 8.97902 11.1631 6.9945Z" fill="#207DFF"/>
</g>
</svg>
