<svg width="17" height="17" viewBox="0 0 17 17" fill="none" xmlns="http://www.w3.org/2000/svg">
<g id="headset" clip-path="url(#clip0_3454_19833)">
<path id="Vector" d="M8.5 1.0625C7.09104 1.0625 5.73978 1.62221 4.7435 2.6185C3.74721 3.61478 3.1875 4.96604 3.1875 6.375V7.4375H4.25C4.53179 7.4375 4.80204 7.54944 5.0013 7.7487C5.20056 7.94796 5.3125 8.21821 5.3125 8.5V11.6875C5.3125 11.9693 5.20056 12.2395 5.0013 12.4388C4.80204 12.6381 4.53179 12.75 4.25 12.75H3.1875C2.90571 12.75 2.63546 12.6381 2.4362 12.4388C2.23694 12.2395 2.125 11.9693 2.125 11.6875V6.375C2.125 5.53782 2.28989 4.70884 2.61027 3.93539C2.93064 3.16194 3.40022 2.45917 3.99219 1.86719C4.58417 1.27522 5.28694 0.805642 6.06039 0.485268C6.83384 0.164894 7.66282 0 8.5 0C9.33718 0 10.1662 0.164894 10.9396 0.485268C11.7131 0.805642 12.4158 1.27522 13.0078 1.86719C13.5998 2.45917 14.0694 3.16194 14.3897 3.93539C14.7101 4.70884 14.875 5.53782 14.875 6.375V12.75C14.875 13.4545 14.5951 14.1301 14.097 14.6283C13.5989 15.1264 12.9232 15.4062 12.2188 15.4062H9.95138C9.85812 15.5678 9.724 15.7019 9.56248 15.7951C9.40097 15.8884 9.21775 15.9375 9.03125 15.9375H7.96875C7.68696 15.9375 7.41671 15.8256 7.21745 15.6263C7.01819 15.427 6.90625 15.1568 6.90625 14.875C6.90625 14.5932 7.01819 14.323 7.21745 14.1237C7.41671 13.9244 7.68696 13.8125 7.96875 13.8125H9.03125C9.21775 13.8125 9.40097 13.8616 9.56248 13.9549C9.724 14.0481 9.85812 14.1822 9.95138 14.3438H12.2188C12.6414 14.3438 13.0468 14.1758 13.3457 13.877C13.6446 13.5781 13.8125 13.1727 13.8125 12.75H12.75C12.4682 12.75 12.198 12.6381 11.9987 12.4388C11.7994 12.2395 11.6875 11.9693 11.6875 11.6875V8.5C11.6875 8.21821 11.7994 7.94796 11.9987 7.7487C12.198 7.54944 12.4682 7.4375 12.75 7.4375H13.8125V6.375C13.8125 5.67735 13.6751 4.98654 13.4081 4.34199C13.1411 3.69745 12.7498 3.11181 12.2565 2.6185C11.7632 2.12518 11.1775 1.73387 10.533 1.46689C9.88846 1.19991 9.19765 1.0625 8.5 1.0625Z" fill="black"/>
</g>
<defs>
<clipPath id="clip0_3454_19833">
<rect width="17" height="17" fill="white"/>
</clipPath>
</defs>
</svg>
