<svg width="20" height="25" viewBox="0 0 20 25" fill="none" xmlns="http://www.w3.org/2000/svg">
<path d="M18.365 1.72119H1.29297V24.2252H18.365V1.72119Z" fill="#DADADA" stroke="#C3C3C3" stroke-width="0.75" stroke-miterlimit="10"/>
<path d="M17.6474 2.22266H2.02148V24.6752H17.6474V2.22266Z" stroke="#C3C3C3" stroke-width="0.4" stroke-miterlimit="10"/>
<path d="M9.66922 24.5921C9.62864 24.5921 9.5957 24.5592 9.5957 24.5186V2.3616C9.5957 2.32102 9.62864 2.28809 9.66922 2.28809H9.96976C10.0103 2.28809 10.0433 2.32102 10.0433 2.3616V24.5186C10.0433 24.5592 10.0103 24.5921 9.96976 24.5921H9.66922Z" fill="white"/>
<path d="M9.96905 2.35773V24.5147H9.66852V2.35773H9.96905ZM9.96905 2.21069H9.66852C9.58736 2.21069 9.52148 2.27656 9.52148 2.35773V24.5147C9.52148 24.5959 9.58736 24.6617 9.66852 24.6617H9.96905C10.0502 24.6617 10.1161 24.5959 10.1161 24.5147V2.35773C10.1161 2.27656 10.0502 2.21069 9.96905 2.21069Z" fill="#C3C3C3"/>
<path opacity="0.21" d="M17.5729 5.31396L10.125 12.8477L10.1312 9.74016L17.5702 2.37476L17.5729 5.31396Z" fill="white"/>
<path opacity="0.21" d="M17.5636 7.43617L10.1074 15.0122L10.1114 14.2157L17.5683 6.62769L17.5636 7.43617Z" fill="white"/>
<path opacity="0.21" d="M9.53388 10.5762L2.08594 18.1099L2.09211 15.0024L9.53113 7.63696L9.53388 10.5762Z" fill="white"/>
<path opacity="0.21" d="M9.53039 12.6952L2.07422 20.2713L2.07824 19.4747L9.5351 11.8867L9.53039 12.6952Z" fill="white"/>
<path d="M2.04687 0.75C1.21845 0.75 0.546875 1.42157 0.546875 2.25V24.6729H2.01721V2.72034C2.01721 2.44419 2.24107 2.22034 2.51721 2.22034H17.1432C17.4193 2.22034 17.6432 2.44419 17.6432 2.72034V24.6729H19.1135V2.25C19.1135 1.42157 18.4419 0.75 17.6135 0.75H2.04687Z" fill="white" stroke="#C3C3C3" stroke-width="0.4" stroke-miterlimit="10"/>
<path opacity="0.25" d="M17.6223 4.02302V2.79272C17.6223 2.51658 17.3984 2.29272 17.1223 2.29272H2.58398C2.30784 2.29272 2.08398 2.51658 2.08398 2.79272V24.6871H3.62205V4.02302H17.6223Z" fill="#C3C3C3"/>
</svg>
