<svg width="16" height="15" viewBox="0 0 16 15" fill="none" xmlns="http://www.w3.org/2000/svg">
<g clip-path="url(#clip0_4647_7082)">
<path d="M5.48633 9.58702V1.36963L6.39937 1.82615L7.31242 1.36963L8.22375 1.82615L9.14735 1.36963L10.0515 1.82615L10.9586 1.36963L11.8696 1.82615L12.7907 1.36963L13.704 1.82615L14.6168 1.36963V7.76093" stroke="#17CF9D" stroke-width="0.8" stroke-linejoin="round"/>
<path d="M14.6166 7.76099V10.9566C14.6166 11.562 14.3761 12.1426 13.9481 12.5707C13.52 12.9988 12.9394 13.2392 12.334 13.2392M12.334 13.2392C11.7286 13.2392 11.148 12.9988 10.72 12.5707C10.2919 12.1426 10.0514 11.562 10.0514 10.9566V9.58707H2.29052C2.23042 9.58654 2.17082 9.59798 2.11519 9.62074C2.05956 9.64349 2.00903 9.6771 1.96653 9.7196C1.92403 9.7621 1.89042 9.81263 1.86767 9.86826C1.84491 9.92389 1.83347 9.9835 1.834 10.0436C1.834 11.8697 2.02631 13.2392 4.11661 13.2392H12.334Z" stroke="#17CF9D" stroke-width="0.8" stroke-linejoin="round"/>
<path d="M7.3125 4.10864H12.7908M9.13859 6.39125H12.7908" stroke="#17CF9D" stroke-width="0.8" stroke-linecap="round" stroke-linejoin="round"/>
</g>
<defs>
<clipPath id="clip0_4647_7082">
<rect width="14.6087" height="14.6087" fill="white" transform="translate(0.921875)"/>
</clipPath>
</defs>
</svg>
