<svg width="18" height="23" viewBox="0 0 18 23" fill="none" xmlns="http://www.w3.org/2000/svg">
<g id="Group 33664">
<rect id="Rectangle 4222" width="17.25" height="23" rx="3" fill="#207DFF"/>
<rect id="Rectangle 4223" x="10" y="7" width="5" height="1.5" rx="0.75" fill="white"/>
<rect id="Rectangle 4224" x="10" y="11" width="5" height="1.5" rx="0.75" fill="white"/>
<rect id="Rectangle 4225" x="3" y="15" width="12" height="1.5" rx="0.75" fill="white"/>
<rect id="Rectangle 4226" x="3" y="19" width="12" height="1.5" rx="0.75" fill="white"/>
<path id="&#226;&#130;&#185;" d="M7.63574 7.50213C7.94217 7.50213 8.1649 7.79325 8.08475 8.08901C8.0298 8.29175 7.8458 8.43253 7.63574 8.43253H3.88958C3.58247 8.43253 3.35963 8.14019 3.44101 7.84406C3.49651 7.6421 3.68014 7.50213 3.88958 7.50213H7.63574ZM5.87518 12.9993L3.52203 10.1688C3.43628 10.0656 3.38905 9.93588 3.38845 9.80173C3.387 9.48136 3.64631 9.22088 3.96669 9.22088H4.61452C4.90808 9.22088 5.15311 9.17235 5.34961 9.07528C5.54847 8.97585 5.6988 8.83736 5.8006 8.6598C5.90477 8.47988 5.95685 8.26918 5.95685 8.0277C5.95685 7.66548 5.85032 7.37429 5.63725 7.15412C5.42418 6.93395 5.08327 6.82386 4.61452 6.82386H3.98365C3.6262 6.82386 3.3642 6.48751 3.45169 6.14093C3.51319 5.89728 3.73236 5.72656 3.98365 5.72656H4.61452C5.21112 5.72656 5.70472 5.81889 6.09535 6.00355C6.48834 6.18584 6.7819 6.44389 6.97603 6.7777C7.17253 7.11151 7.27077 7.50213 7.27077 7.94957C7.27077 8.34493 7.19857 8.69768 7.05416 9.00781C6.90974 9.31795 6.68247 9.57244 6.37234 9.77131C6.0622 9.97017 5.65619 10.1027 5.1543 10.169L5.11168 10.1832L7.356 12.9354V12.9993H5.87518ZM7.63238 5.72656C7.94368 5.72656 8.16958 6.02282 8.0872 6.32301C8.03082 6.52847 7.84369 6.67061 7.63063 6.66982L4.17063 6.65696L4.42986 5.72656H7.63238Z" fill="white"/>
</g>
</svg>
