<svg width="32" height="32" viewBox="0 0 32 32" fill="none" xmlns="http://www.w3.org/2000/svg">
<path d="M24.6673 6.66667C24.6673 6.29848 24.3689 6 24.0007 6C23.6325 6 23.334 6.29848 23.334 6.66667V8.20187L24.1126 9.3698C24.3169 9.67613 24.7308 9.75893 25.0371 9.55473C25.3435 9.35047 25.4263 8.93653 25.2221 8.6302L24.6673 7.79813V6.66667Z" fill="#207DFF"/>
<path fill-rule="evenodd" clip-rule="evenodd" d="M24 12C26.2091 12 28 10.2091 28 8C28 5.79086 26.2091 4 24 4C21.7909 4 20 5.79086 20 8C20 10.2091 21.7909 12 24 12ZM24 10.6667C25.4727 10.6667 26.6667 9.47273 26.6667 8C26.6667 6.52724 25.4727 5.33333 24 5.33333C22.5273 5.33333 21.3333 6.52724 21.3333 8C21.3333 9.47273 22.5273 10.6667 24 10.6667Z" fill="#207DFF"/>
<path fill-rule="evenodd" clip-rule="evenodd" d="M12.0641 10.0701C11.0827 9.08812 9.49093 9.08759 8.5088 10.0689L8.0394 10.5379C7.1466 10.2841 6.1477 10.5112 5.44469 11.2189C4.40733 12.2633 4.40733 13.9583 5.44469 15.0027L6 15.5618V22.6666H4V23.9999H6.03367C5.60149 24.4235 5.33333 25.0137 5.33333 25.6666C5.33333 26.9553 6.378 27.9999 7.66667 27.9999C8.95533 27.9999 10 26.9553 10 25.6666C10 25.0137 9.73187 24.4235 9.29967 23.9999H22.7003C22.2681 24.4235 22 25.0137 22 25.6666C22 26.9553 23.0447 27.9999 24.3333 27.9999C25.622 27.9999 26.6667 26.9553 26.6667 25.6666C26.6667 25.0137 26.3985 24.4235 25.9663 23.9999H28V22.6666H25.3333V20.6664H25.3775C26.8259 20.6664 28 19.4825 28 18.0219C28 16.5615 26.8259 15.3775 25.3775 15.3775H13.4067C13.3523 15.3775 13.3001 15.3557 13.2617 15.317L13.0174 15.0711L13.263 14.8257C14.2452 13.8444 14.2457 12.2528 13.2642 11.2708L12.0641 10.0701ZM24 22.6666V20.6664H11.3815C11.1822 20.6664 10.9911 20.5867 10.8501 20.4447L7.33333 16.9041V22.6666H24ZM12.0778 14.1251L12.3206 13.8825C12.7818 13.4217 12.7821 12.6745 12.3212 12.2134L11.1211 11.0127C10.6601 10.5515 9.91247 10.5512 9.4512 11.0121L9.21753 11.2455L12.0778 14.1251ZM25.3775 16.7109H13.4067C12.9955 16.7109 12.6033 16.5462 12.3157 16.2567L8.24513 12.1586C7.73153 11.6415 6.90427 11.6415 6.39067 12.1586C5.86978 12.683 5.86978 13.5387 6.39067 14.0631L11.6253 19.3331H25.3775C26.0791 19.3331 26.6667 18.7565 26.6667 18.0219C26.6667 17.2873 26.079 16.7109 25.3775 16.7109ZM8.66667 25.6666C8.66667 26.2189 8.21893 26.6666 7.66667 26.6666C7.1144 26.6666 6.66667 26.2189 6.66667 25.6666C6.66667 25.1143 7.1144 24.6666 7.66667 24.6666C8.21893 24.6666 8.66667 25.1143 8.66667 25.6666ZM24.3333 26.6666C24.8856 26.6666 25.3333 26.2189 25.3333 25.6666C25.3333 25.1143 24.8856 24.6666 24.3333 24.6666C23.7811 24.6666 23.3333 25.1143 23.3333 25.6666C23.3333 26.2189 23.7811 26.6666 24.3333 26.6666Z" fill="#207DFF"/>
</svg>
