<svg width="23" height="21" viewBox="0 0 23 21" fill="none" xmlns="http://www.w3.org/2000/svg">
<path d="M3.43828 7.67188H2.4375V17.6797H3.43828V7.67188Z" fill="#17CF9D"/>
<path d="M3.43828 15.3477H2.4375V17.6828H3.43828V15.3477Z" fill="#17CF9D"/>
<path d="M19.8027 7.67188H18.9688V17.6797H19.8027V7.67188Z" fill="#17CF9D"/>
<path d="M19.8027 15.3477H18.9688V17.6828H19.8027V15.3477Z" fill="#17CF9D"/>
<mask id="path-5-inside-1_3603_9058" fill="white">
<rect x="2.45312" y="0.96875" width="17.0621" height="8.16014" rx="0.8"/>
</mask>
<rect x="2.45312" y="0.96875" width="17.0621" height="8.16014" rx="0.8" stroke="#17CF9D" stroke-width="2" mask="url(#path-5-inside-1_3603_9058)"/>
<g filter="url(#filter0_d_3603_9058)">
<rect x="5.40625" y="0.226562" width="11.1275" height="5.93464" rx="2.2" fill="#6DE1C2"/>
</g>
<path d="M21.6127 10.4235V6.8082C21.6127 6.11149 21.0481 5.54688 20.3517 5.54688H1.8549C1.15819 5.54688 0.59375 6.11149 0.59375 6.8082V10.4235H21.6127Z" fill="#6DE1C2"/>
<path d="M18.3074 6.15894C18.4981 6.15894 18.6105 5.94489 18.5022 5.78786C18.2612 5.35624 17.7857 4.81382 17.0467 4.56158C14.1725 3.58101 8.34402 4.00611 6.57976 4.14589C4.85223 4.283 3.7553 5.38061 3.35462 5.85938C3.23502 6.00228 3.25902 6.12109 3.44445 6.13944C3.51141 6.14606 3.59027 6.15261 3.68014 6.15909L18.3074 6.15894Z" fill="#B9FFEC"/>
<path d="M21.2622 9.00781H1.07812C0.52584 9.00781 0.078125 9.45553 0.078125 10.0078V12.0102H22.2622V10.0078C22.2622 9.45553 21.8145 9.00781 21.2622 9.00781Z" fill="#17CF9D"/>
<path d="M1.06328 10.0117H0.0625V20.0196H1.06328V10.0117Z" fill="#17CF9D"/>
<path d="M1.06328 17.6836H0.0625V20.0188H1.06328V17.6836Z" fill="#17CF9D"/>
<path d="M22.2586 10.0117H21.2578V20.0196H22.2586V10.0117Z" fill="#17CF9D"/>
<path d="M22.2586 17.6836H21.2578V20.0188H22.2586V17.6836Z" fill="#17CF9D"/>
<defs>
<filter id="filter0_d_3603_9058" x="1.40625" y="0.226562" width="19.127" height="13.9346" filterUnits="userSpaceOnUse" color-interpolation-filters="sRGB">
<feFlood flood-opacity="0" result="BackgroundImageFix"/>
<feColorMatrix in="SourceAlpha" type="matrix" values="0 0 0 0 0 0 0 0 0 0 0 0 0 0 0 0 0 0 127 0" result="hardAlpha"/>
<feOffset dy="4"/>
<feGaussianBlur stdDeviation="2"/>
<feComposite in2="hardAlpha" operator="out"/>
<feColorMatrix type="matrix" values="0 0 0 0 0.64025 0 0 0 0 0.780036 0 0 0 0 0.975 0 0 0 1 0"/>
<feBlend mode="normal" in2="BackgroundImageFix" result="effect1_dropShadow_3603_9058"/>
<feBlend mode="normal" in="SourceGraphic" in2="effect1_dropShadow_3603_9058" result="shape"/>
</filter>
</defs>
</svg>
