<svg width="13" height="13" viewBox="0 0 13 13" fill="none" xmlns="http://www.w3.org/2000/svg">
<g clip-path="url(#clip0_3603_6633)">
<path d="M11.375 0H1.625C1.19402 0 0.780698 0.171205 0.475951 0.475951C0.171205 0.780698 0 1.19402 0 1.625L0 11.375C0 11.806 0.171205 12.2193 0.475951 12.524C0.780698 12.8288 1.19402 13 1.625 13H11.375C11.806 13 12.2193 12.8288 12.524 12.524C12.8288 12.2193 13 11.806 13 11.375V1.625C13 1.19402 12.8288 0.780698 12.524 0.475951C12.2193 0.171205 11.806 0 11.375 0V0ZM0.8125 3.13381C0.8125 2.7495 1.1765 2.4375 1.625 2.4375H11.375C11.8235 2.4375 12.1875 2.7495 12.1875 3.13381V11.4912C12.1875 11.8755 11.8235 12.1875 11.375 12.1875H1.625C1.1765 12.1875 0.8125 11.8755 0.8125 11.4912V3.13381Z" fill="#207DFF"/>
<path d="M5.28125 5.6875C5.49674 5.6875 5.7034 5.6019 5.85577 5.44952C6.00815 5.29715 6.09375 5.09049 6.09375 4.875C6.09375 4.65951 6.00815 4.45285 5.85577 4.30048C5.7034 4.1481 5.49674 4.0625 5.28125 4.0625C5.06576 4.0625 4.8591 4.1481 4.70673 4.30048C4.55435 4.45285 4.46875 4.65951 4.46875 4.875C4.46875 5.09049 4.55435 5.29715 4.70673 5.44952C4.8591 5.6019 5.06576 5.6875 5.28125 5.6875ZM7.71875 5.6875C7.93424 5.6875 8.1409 5.6019 8.29327 5.44952C8.44565 5.29715 8.53125 5.09049 8.53125 4.875C8.53125 4.65951 8.44565 4.45285 8.29327 4.30048C8.1409 4.1481 7.93424 4.0625 7.71875 4.0625C7.50326 4.0625 7.2966 4.1481 7.14423 4.30048C6.99185 4.45285 6.90625 4.65951 6.90625 4.875C6.90625 5.09049 6.99185 5.29715 7.14423 5.44952C7.2966 5.6019 7.50326 5.6875 7.71875 5.6875ZM10.1562 5.6875C10.3717 5.6875 10.5784 5.6019 10.7308 5.44952C10.8831 5.29715 10.9688 5.09049 10.9688 4.875C10.9688 4.65951 10.8831 4.45285 10.7308 4.30048C10.5784 4.1481 10.3717 4.0625 10.1562 4.0625C9.94076 4.0625 9.7341 4.1481 9.58173 4.30048C9.42935 4.45285 9.34375 4.65951 9.34375 4.875C9.34375 5.09049 9.42935 5.29715 9.58173 5.44952C9.7341 5.6019 9.94076 5.6875 10.1562 5.6875ZM2.84375 8.125C3.05924 8.125 3.2659 8.0394 3.41827 7.88702C3.57065 7.73465 3.65625 7.52799 3.65625 7.3125C3.65625 7.09701 3.57065 6.89035 3.41827 6.73798C3.2659 6.5856 3.05924 6.5 2.84375 6.5C2.62826 6.5 2.4216 6.5856 2.26923 6.73798C2.11685 6.89035 2.03125 7.09701 2.03125 7.3125C2.03125 7.52799 2.11685 7.73465 2.26923 7.88702C2.4216 8.0394 2.62826 8.125 2.84375 8.125ZM5.28125 8.125C5.49674 8.125 5.7034 8.0394 5.85577 7.88702C6.00815 7.73465 6.09375 7.52799 6.09375 7.3125C6.09375 7.09701 6.00815 6.89035 5.85577 6.73798C5.7034 6.5856 5.49674 6.5 5.28125 6.5C5.06576 6.5 4.8591 6.5856 4.70673 6.73798C4.55435 6.89035 4.46875 7.09701 4.46875 7.3125C4.46875 7.52799 4.55435 7.73465 4.70673 7.88702C4.8591 8.0394 5.06576 8.125 5.28125 8.125ZM7.71875 8.125C7.93424 8.125 8.1409 8.0394 8.29327 7.88702C8.44565 7.73465 8.53125 7.52799 8.53125 7.3125C8.53125 7.09701 8.44565 6.89035 8.29327 6.73798C8.1409 6.5856 7.93424 6.5 7.71875 6.5C7.50326 6.5 7.2966 6.5856 7.14423 6.73798C6.99185 6.89035 6.90625 7.09701 6.90625 7.3125C6.90625 7.52799 6.99185 7.73465 7.14423 7.88702C7.2966 8.0394 7.50326 8.125 7.71875 8.125ZM10.1562 8.125C10.3717 8.125 10.5784 8.0394 10.7308 7.88702C10.8831 7.73465 10.9688 7.52799 10.9688 7.3125C10.9688 7.09701 10.8831 6.89035 10.7308 6.73798C10.5784 6.5856 10.3717 6.5 10.1562 6.5C9.94076 6.5 9.7341 6.5856 9.58173 6.73798C9.42935 6.89035 9.34375 7.09701 9.34375 7.3125C9.34375 7.52799 9.42935 7.73465 9.58173 7.88702C9.7341 8.0394 9.94076 8.125 10.1562 8.125ZM2.84375 10.5625C3.05924 10.5625 3.2659 10.4769 3.41827 10.3245C3.57065 10.1722 3.65625 9.96549 3.65625 9.75C3.65625 9.53451 3.57065 9.32785 3.41827 9.17548C3.2659 9.0231 3.05924 8.9375 2.84375 8.9375C2.62826 8.9375 2.4216 9.0231 2.26923 9.17548C2.11685 9.32785 2.03125 9.53451 2.03125 9.75C2.03125 9.96549 2.11685 10.1722 2.26923 10.3245C2.4216 10.4769 2.62826 10.5625 2.84375 10.5625ZM5.28125 10.5625C5.49674 10.5625 5.7034 10.4769 5.85577 10.3245C6.00815 10.1722 6.09375 9.96549 6.09375 9.75C6.09375 9.53451 6.00815 9.32785 5.85577 9.17548C5.7034 9.0231 5.49674 8.9375 5.28125 8.9375C5.06576 8.9375 4.8591 9.0231 4.70673 9.17548C4.55435 9.32785 4.46875 9.53451 4.46875 9.75C4.46875 9.96549 4.55435 10.1722 4.70673 10.3245C4.8591 10.4769 5.06576 10.5625 5.28125 10.5625ZM7.71875 10.5625C7.93424 10.5625 8.1409 10.4769 8.29327 10.3245C8.44565 10.1722 8.53125 9.96549 8.53125 9.75C8.53125 9.53451 8.44565 9.32785 8.29327 9.17548C8.1409 9.0231 7.93424 8.9375 7.71875 8.9375C7.50326 8.9375 7.2966 9.0231 7.14423 9.17548C6.99185 9.32785 6.90625 9.53451 6.90625 9.75C6.90625 9.96549 6.99185 10.1722 7.14423 10.3245C7.2966 10.4769 7.50326 10.5625 7.71875 10.5625Z" fill="#207DFF"/>
</g>
<defs>
<clipPath id="clip0_3603_6633">
<rect width="13" height="13" fill="white"/>
</clipPath>
</defs>
</svg>
