<svg width="32" height="32" viewBox="0 0 32 32" fill="none" xmlns="http://www.w3.org/2000/svg">
<path d="M19.5187 6.61523C21.3405 6.61523 22.8218 8.06211 22.8218 9.84023C22.8218 11.6184 21.3405 13.0652 19.5187 13.0652C17.6968 13.0652 16.2155 11.6184 16.2155 9.84023C16.2155 8.06211 17.6968 6.61523 19.5187 6.61523ZM19.5187 5.05273C16.8312 5.05273 14.653 7.19648 14.653 9.84023C14.653 12.484 16.8312 14.6277 19.5187 14.6277C22.2062 14.6277 24.3843 12.484 24.3843 9.84023C24.3843 7.19648 22.2062 5.05273 19.5187 5.05273ZM13.3437 9.83711C13.3437 9.07773 13.528 8.35898 13.8593 7.72148C13.1468 7.11211 12.2062 6.74023 11.178 6.74023C8.95304 6.74023 7.14991 8.46523 7.14991 10.5965C7.14991 12.7277 8.95304 14.4527 11.178 14.4527C12.528 14.4527 13.7218 13.8184 14.453 12.8402C13.7562 12.0215 13.3437 10.9777 13.3437 9.83711ZM9.29678 22.7215V23.2496C9.29678 20.0152 11.5624 17.2559 14.7249 16.1809C13.8124 15.7652 12.7843 15.5277 11.6968 15.5277H10.8062C7.09991 15.5277 4.06866 18.2527 4.06866 21.6121V21.1871C4.06866 22.9465 3.92803 24.384 5.86866 24.384H9.31241C9.28429 23.8777 9.29678 23.3152 9.29678 22.7215Z" fill="#17CF9D"/>
<path d="M19.9769 17.5361C20.8487 17.5361 21.6987 17.6986 22.4956 18.0174C23.2612 18.3236 23.9518 18.7643 24.5425 19.3205C25.7393 20.4518 26.3987 21.9424 26.3987 23.5236H26.405C26.4081 23.683 26.4143 23.8361 26.4175 23.9893C26.43 24.3955 26.4425 24.7768 26.4268 25.0799C26.4175 25.2205 26.405 25.3205 26.3925 25.3861C26.3331 25.3955 26.2425 25.4018 26.1206 25.4018H13.0706C12.8175 25.4018 12.6925 25.3674 12.6425 25.3518C12.6206 25.3018 12.5706 25.1674 12.5362 24.8643C12.4956 24.4955 12.4956 24.0268 12.4987 23.5268H12.5019C12.5019 21.9455 13.1612 20.4549 14.3581 19.3236C14.9487 18.7643 15.6362 18.3268 16.405 18.0205C17.2018 17.7018 18.0487 17.5393 18.9237 17.5393H19.9769M19.9769 15.9736H18.9206C14.53 15.9736 10.9362 19.358 10.9362 23.5236V22.9955C10.9362 25.1768 10.7706 26.9643 13.0675 26.9643H26.1206C28.4206 26.9643 27.9612 25.1799 27.9612 22.9955V23.5236C27.9612 19.3549 24.3675 15.9736 19.9769 15.9736Z" fill="#17CF9D"/>
<path d="M24.507 21.352L21.6602 18.8239C21.3727 18.5677 20.9164 18.7739 20.9164 19.1583V20.8333H17.0664V22.4802H20.9164V24.2177C20.9164 24.602 21.3727 24.8083 21.6602 24.552L24.507 22.0239C24.707 21.8427 24.707 21.5302 24.507 21.352Z" fill="#17CF9D"/>
</svg>
