<svg width="16" height="14" viewBox="0 0 16 14" fill="none" xmlns="http://www.w3.org/2000/svg">
<path d="M3.40625 9C3.40625 8.79289 3.57414 8.625 3.78125 8.625H9.03125C9.23836 8.625 9.40625 8.79289 9.40625 9C9.40625 9.20711 9.23836 9.375 9.03125 9.375H3.78125C3.57414 9.375 3.40625 9.20711 3.40625 9Z" fill="#207DFF"/>
<path d="M3.78125 10.5C3.57414 10.5 3.40625 10.6679 3.40625 10.875C3.40625 11.0821 3.57414 11.25 3.78125 11.25H9.03125C9.23836 11.25 9.40625 11.0821 9.40625 10.875C9.40625 10.6679 9.23836 10.5 9.03125 10.5H3.78125Z" fill="#207DFF"/>
<path d="M4.53125 5.625V4.5H5.28125V5.625H6.40625V6.375H5.28125V7.5H4.53125V6.375H3.40625V5.625H4.53125Z" fill="#207DFF"/>
<path fill-rule="evenodd" clip-rule="evenodd" d="M4.90625 0C4.28491 0 3.78125 0.503681 3.78125 1.125H2.65625C2.03493 1.125 1.53125 1.62866 1.53125 2.25V12.375C1.53125 12.9963 2.03493 13.5 2.65625 13.5H10.1563C10.7776 13.5 11.2813 12.9963 11.2813 12.375V2.25C11.2813 1.62866 10.7776 1.125 10.1563 1.125H9.03125C9.03125 0.503681 8.52759 0 7.90625 0H4.90625ZM7.90625 2.25C8.11336 2.25 8.28125 2.08211 8.28125 1.875V1.125C8.28125 0.917895 8.11336 0.75 7.90625 0.75H4.90625C4.69914 0.75 4.53125 0.917895 4.53125 1.125V1.875C4.53125 2.08211 4.69914 2.25 4.90625 2.25H7.90625ZM3.78125 1.875C3.78125 2.49634 4.28491 3 4.90625 3H7.90625C8.52759 3 9.03125 2.49634 9.03125 1.875H10.1563C10.3634 1.875 10.5313 2.04289 10.5313 2.25V12.375C10.5313 12.5821 10.3634 12.75 10.1563 12.75H2.65625C2.44915 12.75 2.28125 12.5821 2.28125 12.375V2.25C2.28125 2.04289 2.44915 1.875 2.65625 1.875H3.78125Z" fill="#207DFF"/>
<path fill-rule="evenodd" clip-rule="evenodd" d="M12.7812 4.125C12.7812 3.50366 13.2849 3 13.9062 3C14.5276 3 15.0312 3.50366 15.0312 4.125V11.7386L13.9062 13.4261L12.7812 11.7386V4.125ZM13.9062 3.75C13.6991 3.75 13.5312 3.91789 13.5312 4.125V4.875H14.2812V4.125C14.2812 3.91789 14.1134 3.75 13.9062 3.75ZM13.9062 12.074L14.2812 11.5115V5.625H13.5312V11.5115L13.9062 12.074Z" fill="#207DFF"/>
</svg>
