<svg width="22" height="25" viewBox="0 0 22 25" fill="none" xmlns="http://www.w3.org/2000/svg">
<path d="M19.3689 1.72266H2.29688V24.2267H19.3689V1.72266Z" fill="#AAF7E2" stroke="#17CF9D" stroke-width="0.75" stroke-miterlimit="10"/>
<path d="M18.6494 2.22266H3.02344V24.6752H18.6494V2.22266Z" stroke="#17CF9D" stroke-width="0.4" stroke-miterlimit="10"/>
<path d="M10.6751 24.5931C10.6345 24.5931 10.6016 24.5601 10.6016 24.5196V2.36258C10.6016 2.322 10.6345 2.28906 10.6751 2.28906H10.9756C11.0162 2.28906 11.0491 2.322 11.0491 2.36258V24.5196C11.0491 24.5601 11.0162 24.5931 10.9756 24.5931H10.6751Z" fill="white"/>
<path d="M10.971 2.35797V24.515H10.6705V2.35797H10.971ZM10.971 2.21094H10.6705C10.5893 2.21094 10.5234 2.27681 10.5234 2.35797V24.515C10.5234 24.5961 10.5893 24.662 10.6705 24.662H10.971C11.0522 24.662 11.118 24.5961 11.118 24.515V2.35797C11.118 2.27681 11.0522 2.21094 10.971 2.21094Z" fill="#17CF9D"/>
<path opacity="0.21" d="M18.5729 5.3142L11.125 12.8479L11.1312 9.7404L18.5702 2.375L18.5729 5.3142Z" fill="white"/>
<path opacity="0.21" d="M18.5655 7.4374L11.1094 15.0134L11.1134 14.2169L18.5703 6.62891L18.5655 7.4374Z" fill="white"/>
<path opacity="0.21" d="M10.5339 10.5759L3.08594 18.1096L3.09211 15.0021L10.5311 7.63672L10.5339 10.5759Z" fill="white"/>
<path opacity="0.21" d="M10.5343 12.6952L3.07812 20.2713L3.08214 19.4747L10.539 11.8867L10.5343 12.6952Z" fill="white"/>
<path d="M3.04687 0.75C2.21845 0.75 1.54688 1.42157 1.54688 2.25V24.6729H3.01721V2.72034C3.01721 2.44419 3.24107 2.22034 3.51721 2.22034H18.1432C18.4193 2.22034 18.6432 2.44419 18.6432 2.72034V24.6729H20.1135V2.25C20.1135 1.42157 19.4419 0.75 18.6135 0.75H3.04687Z" fill="white" stroke="#17CF9D" stroke-width="0.4" stroke-miterlimit="10"/>
<path opacity="0.25" d="M18.6243 4.02326V2.79297C18.6243 2.51683 18.4004 2.29297 18.1243 2.29297H3.58594C3.30979 2.29297 3.08594 2.51683 3.08594 2.79297V24.6874H4.62401V4.02326H18.6243Z" fill="#17CF9D"/>
<path fill-rule="evenodd" clip-rule="evenodd" d="M0 24.6107C0 24.3964 0.0639997 24.2227 0.142947 24.2227L21.5851 24.2227C21.664 24.2227 21.728 24.3964 21.728 24.6107C21.728 24.8249 21.664 24.9987 21.5851 24.9987L0.142947 24.9987C0.0639997 24.9987 0 24.8249 0 24.6107Z" fill="#17CF9D"/>
</svg>
