<svg width="13" height="11" viewBox="0 0 13 11" fill="none" xmlns="http://www.w3.org/2000/svg">
<g clip-path="url(#clip0_3603_9825)">
<path d="M11.7797 0.78125H6.86406C6.59566 0.781403 6.70146 0.781253 6.49833 0.781253C6.29521 0.781253 6.49833 0.781253 6.13281 0.781316L1.21719 0.78125C0.689063 0.78125 0.242188 1.20781 0.242188 1.75625V9.04844C0.242188 9.57656 0.66875 10.0234 1.21719 10.0234H11.7797C12.3078 10.0234 12.7547 9.59688 12.7547 9.04844V1.75625C12.7547 1.20781 12.3078 0.78125 11.7797 0.78125ZM12.0437 9.04844C12.0437 9.19063 11.9219 9.3125 11.7797 9.3125H1.21719C1.075 9.3125 0.953125 9.19063 0.953125 9.04844V1.75625C0.953125 1.61406 1.075 1.49219 1.21719 1.49219H11.7797C11.9219 1.49219 12.0437 1.61406 12.0437 1.75625V9.04844Z" fill="#207DFF"/>
<path d="M4.04219 5.20937C4.81406 5.20937 5.44375 4.57969 5.44375 3.80781C5.44375 3.03594 4.81406 2.40625 4.04219 2.40625C3.27031 2.40625 2.64062 3.03594 2.64062 3.80781C2.64062 4.57969 3.27031 5.20937 4.04219 5.20937ZM4.04219 3.11719C4.42812 3.11719 4.73281 3.42187 4.73281 3.80781C4.73281 4.19375 4.42812 4.49844 4.04219 4.49844C3.65625 4.49844 3.35156 4.19375 3.35156 3.80781C3.35156 3.42187 3.65625 3.11719 4.04219 3.11719Z" fill="#207DFF"/>
<path d="M4.04062 5.89844C3.06562 5.89844 2.27344 6.69062 2.27344 7.66562C2.27344 7.86875 2.43594 8.03125 2.63906 8.03125C2.84219 8.03125 3.00469 7.86875 3.00469 7.66562C3.00469 7.07656 3.47187 6.60938 4.06094 6.60938C4.65 6.60938 5.11719 7.07656 5.11719 7.66562C5.11719 7.86875 5.27969 8.03125 5.48281 8.03125C5.68594 8.03125 5.84844 7.86875 5.84844 7.66562C5.7875 6.69062 4.99531 5.89844 4.04062 5.89844Z" fill="#207DFF"/>
<path d="M10.0125 3.15625H7.4125C7.20937 3.15625 7.04688 3.31875 7.04688 3.52187C7.04688 3.725 7.20937 3.8875 7.4125 3.8875H9.99219C10.1953 3.8875 10.3578 3.725 10.3578 3.52187C10.3578 3.31875 10.1953 3.15625 10.0125 3.15625Z" fill="#207DFF"/>
<path d="M10.0125 4.98438H7.4125C7.20937 4.98438 7.04688 5.14687 7.04688 5.35C7.04688 5.55312 7.20937 5.71562 7.4125 5.71562H9.99219C10.1953 5.71562 10.3578 5.55312 10.3578 5.35C10.3578 5.14687 10.1953 4.98438 10.0125 4.98438Z" fill="#207DFF"/>
<path d="M9.10156 7.19922H7.43594C7.23281 7.19922 7.07031 7.36172 7.07031 7.56484C7.07031 7.76797 7.23281 7.93047 7.43594 7.93047H9.10156C9.30469 7.93047 9.46719 7.76797 9.46719 7.56484C9.46719 7.36172 9.28437 7.19922 9.10156 7.19922Z" fill="#207DFF"/>
</g>
<defs>
<clipPath id="clip0_3603_9825">
<rect width="13" height="11" fill="white"/>
</clipPath>
</defs>
</svg>
