<svg width="15" height="15" viewBox="0 0 15 15" fill="none" xmlns="http://www.w3.org/2000/svg">
<g clip-path="url(#clip0_4229_1531)">
<path d="M8.50781 2.34375C8.27344 2.34375 8.08594 2.53125 8.08594 2.76562V3.44531H6.89062V2.76562C6.89062 2.53125 6.70312 2.34375 6.46875 2.34375C6.23438 2.34375 6.09375 2.53125 6.09375 2.76562V4.92187C6.09375 5.15625 6.28125 5.34375 6.51562 5.34375C6.75 5.34375 6.9375 5.15625 6.9375 4.92187V4.24219H8.13281V4.92187C8.13281 5.15625 8.32031 5.34375 8.55469 5.34375C8.78906 5.34375 8.90625 5.15625 8.90625 4.92187V2.74219C8.90625 2.53125 8.74219 2.34375 8.50781 2.34375Z" fill="#207DFF"/>
<path d="M8.46094 6.49219H6.53906C6.30469 6.49219 6.11719 6.67969 6.11719 6.91406C6.11719 7.14844 6.30469 7.33594 6.53906 7.33594H8.46094C8.69531 7.33594 8.88281 7.14844 8.88281 6.91406C8.88281 6.67969 8.69531 6.49219 8.46094 6.49219Z" fill="#207DFF"/>
<path d="M8.46094 8.17969H6.53906C6.30469 8.17969 6.11719 8.36719 6.11719 8.60156C6.11719 8.83594 6.30469 9.02344 6.53906 9.02344H8.46094C8.69531 9.02344 8.88281 8.83594 8.88281 8.60156C8.88281 8.36719 8.69531 8.17969 8.46094 8.17969Z" fill="#207DFF"/>
<path d="M13.9453 6.5625L11.4375 5.29688V1.45312C11.4375 0.84375 10.9453 0.328125 10.3125 0.328125H4.66406C4.05469 0.328125 3.53906 0.820312 3.53906 1.45312V5.29688L1.05469 6.5625C0.585938 6.79687 0.304688 7.26562 0.304688 7.78125V13.2656C0.304688 14.0156 0.914062 14.6484 1.6875 14.6484H3.5625H3.96094H11.0391H11.4609H13.3359C14.0859 14.6484 14.7188 14.0391 14.7188 13.2656V7.80469C14.7188 7.26562 14.4141 6.79687 13.9453 6.5625ZM1.66406 13.8516C1.35938 13.8516 1.10156 13.5937 1.10156 13.2891V7.80469C1.10156 7.59375 1.21875 7.40625 1.40625 7.3125L3.53906 6.23438V13.875H1.66406V13.8516ZM8.78906 13.8516H6.21094V12C6.21094 11.2969 6.77344 10.7109 7.5 10.7109C8.20312 10.7109 8.78906 11.2734 8.78906 12V13.8516ZM10.6172 13.8516H9.60938V12C9.60938 10.8516 8.67188 9.89062 7.5 9.89062C6.32812 9.89062 5.39062 10.8281 5.39062 12V13.8516H4.35938V1.45312C4.35938 1.28906 4.5 1.14844 4.66406 1.14844H10.3359C10.5 1.14844 10.6406 1.28906 10.6406 1.45312V13.8516H10.6172ZM13.8984 13.2891C13.8984 13.5937 13.6406 13.8516 13.3359 13.8516H11.4609V6.21094L13.5938 7.28906C13.7812 7.38281 13.8984 7.57031 13.8984 7.78125V13.2891Z" fill="#207DFF"/>
</g>
<defs>
<clipPath id="clip0_4229_1531">
<rect width="15" height="15" fill="white"/>
</clipPath>
</defs>
</svg>
