<svg width="12" height="11" viewBox="0 0 12 11" fill="none" xmlns="http://www.w3.org/2000/svg">
<path d="M10.4343 8.78435C10.3383 8.6527 10.2543 8.53201 10.2303 8.4223C10.2063 8.30161 10.2063 8.16995 10.2303 8.00538C10.2423 7.92858 10.2543 7.84081 10.2663 7.75304C10.2783 7.6543 10.2783 7.53361 10.2423 7.43487C10.2183 7.32515 10.1583 7.22641 10.0983 7.13864C10.0623 7.09475 10.0263 7.05087 9.97832 7.01795C9.93032 6.98504 9.89433 6.95212 9.83433 6.91921C9.78633 6.89727 9.72632 6.8863 9.66632 6.91921C9.58232 6.9631 9.55833 7.05087 9.59433 7.12767L9.63033 7.18253C9.64233 7.20447 9.66632 7.22641 9.67832 7.25932C9.69032 7.29224 9.71432 7.31418 9.72632 7.3471C9.75032 7.40195 9.77433 7.46778 9.77433 7.52264C9.77433 7.58847 9.77433 7.64333 9.76233 7.70915L9.72632 7.9615C9.71432 8.0383 9.71433 8.13704 9.71433 8.23578C9.72633 8.33452 9.73832 8.44424 9.78632 8.54298C9.87032 8.75144 10.0383 8.90504 10.2063 9.01475C10.2663 9.04767 10.3383 9.04767 10.3983 9.01475C10.4703 8.97087 10.4943 8.87212 10.4343 8.78435Z" fill="#207DFF"/>
<path d="M11.4578 8.79532C11.3498 8.66367 11.2778 8.54298 11.2538 8.4223C11.2298 8.30161 11.2298 8.16995 11.2538 8.00538C11.2658 7.92858 11.2778 7.84081 11.2898 7.75304C11.3018 7.6543 11.3018 7.53361 11.2658 7.43487C11.2418 7.32515 11.1818 7.22641 11.1218 7.13864C11.0858 7.09475 11.0498 7.05087 11.0018 7.01795C10.9538 6.98504 10.9178 6.95212 10.8578 6.91921C10.8098 6.89727 10.7498 6.8863 10.6898 6.91921C10.6058 6.9631 10.5818 7.05087 10.6178 7.12767L10.6538 7.18253C10.6658 7.20447 10.6898 7.22641 10.7018 7.25932C10.7138 7.29224 10.7378 7.31418 10.7498 7.3471C10.7738 7.40195 10.7978 7.46778 10.7978 7.52264C10.7978 7.58847 10.7978 7.64333 10.7858 7.70915L10.7498 7.9615C10.7378 8.04927 10.7258 8.14801 10.7378 8.24675C10.7498 8.3455 10.7618 8.45521 10.8098 8.55395C10.8938 8.76241 11.0618 8.91601 11.2298 9.02573C11.2898 9.05864 11.3618 9.05864 11.4218 9.02573C11.4938 8.97087 11.5058 8.87212 11.4578 8.79532Z" fill="#207DFF"/>
<path d="M10.208 6.15412C10.34 5.92372 10.328 5.64944 10.172 5.43001L9.164 4.02567C9.14 3.98178 9.116 3.92692 9.116 3.87207C8.924 1.82041 7.076 0.273438 4.82 0.273438C2.444 0.273438 0.5 2.03984 0.5 4.22315C0.5 5.48487 1.136 6.74658 2.216 7.58041C2.24 7.60235 2.288 7.64624 2.288 7.71207V9.79664C2.288 10.1148 2.552 10.3891 2.9 10.411L6.332 10.6853C6.356 10.6853 6.368 10.6853 6.392 10.6853C6.56 10.6853 6.728 10.6305 6.848 10.5208C6.992 10.4001 7.064 10.2355 7.064 10.0709V8.72144H8.132C8.684 8.72144 9.128 8.3155 9.128 7.81081V6.52715H9.512C9.812 6.52715 10.076 6.38452 10.208 6.15412ZM9.632 5.86887C9.62 5.89081 9.584 5.92372 9.524 5.92372H8.936C8.684 5.92372 8.48 6.11024 8.48 6.34064V7.81081C8.48 7.98635 8.324 8.11801 8.144 8.11801H6.944C6.656 8.11801 6.428 8.32647 6.428 8.58978L6.404 10.0929L2.96 9.79664V7.71207C2.96 7.49264 2.852 7.27321 2.66 7.13058C1.736 6.40647 1.16 5.29835 1.16 4.22315C1.16 2.36898 2.804 0.876866 4.82 0.876866C6.728 0.876866 8.3 2.19344 8.468 3.92692C8.48 4.06955 8.528 4.20121 8.612 4.34384L9.632 5.75915C9.656 5.80304 9.644 5.84692 9.632 5.86887Z" fill="#207DFF"/>
</svg>
