<svg width="22" height="22" viewBox="0 0 22 22" fill="none" xmlns="http://www.w3.org/2000/svg">
<path fill-rule="evenodd" clip-rule="evenodd" d="M6.41674 10.083V11.458L4.8167 14.2009C4.10376 15.4231 4.98536 16.958 6.40033 16.958H9.64153C11.0564 16.958 11.9381 15.4231 11.2251 14.2009L9.62507 11.458V10.083C9.87821 10.083 10.0834 9.87781 10.0834 9.62467V7.79134C10.0834 7.5382 9.87821 7.33301 9.62507 7.33301H6.41674C6.1636 7.33301 5.95841 7.5382 5.95841 7.79134V9.62467C5.95841 9.87781 6.1636 10.083 6.41674 10.083ZM10.4333 14.6628L8.70841 11.7058V10.083H7.33341V11.7058L5.60851 14.6628C5.25202 15.2739 5.69285 16.0413 6.40033 16.0413H9.64153C10.349 16.0413 10.7898 15.2739 10.4333 14.6628ZM6.87507 8.24967V9.16634H9.16674V8.24967H6.87507Z" fill="#17CF9D"/>
<path fill-rule="evenodd" clip-rule="evenodd" d="M14.6667 7.64464C15.7126 6.94788 16.5001 6.2744 16.5001 5.04199H17.4167C17.4167 6.60537 16.4646 7.50847 15.4974 8.1885C15.8783 8.44406 16.2566 8.72131 16.569 9.03893C17.0601 9.53824 17.4167 10.1635 17.4167 11.0003C17.4167 11.8372 17.0601 12.4624 16.569 12.9617C16.2566 13.2793 15.8783 13.5566 15.4974 13.8122C16.4646 14.4922 17.4167 15.3953 17.4167 16.9587H16.5001C16.5001 16.7967 16.4865 16.6443 16.4605 16.5003H14.2084C13.9553 16.5003 13.7501 16.2951 13.7501 16.042C13.7501 15.7889 13.9553 15.5837 14.2084 15.5837H16.0715C15.7406 15.1166 15.2429 14.7399 14.6667 14.356C13.6209 15.0528 12.8334 15.7262 12.8334 16.9587H11.9167C11.9167 15.3953 12.8689 14.4922 13.8361 13.8122C13.4552 13.5566 13.0769 13.2793 12.7645 12.9617C12.2734 12.4624 11.9167 11.8372 11.9167 11.0003C11.9167 10.1635 12.2734 9.53824 12.7645 9.03893C13.0769 8.72131 13.4552 8.44406 13.8361 8.1885C12.8689 7.50847 11.9167 6.60537 11.9167 5.04199H12.8334C12.8334 5.20397 12.847 5.35632 12.873 5.50033H15.1251C15.3782 5.50033 15.5834 5.70552 15.5834 5.95866C15.5834 6.2118 15.3782 6.41699 15.1251 6.41699H13.262C13.5929 6.88403 14.0906 7.26078 14.6667 7.64464ZM14.6667 8.73946C14.2064 9.0388 13.7975 9.31274 13.4749 9.62533H15.8586C15.536 9.31274 15.1271 9.0388 14.6667 8.73946ZM12.8334 11.0003C12.8334 10.8362 12.8535 10.6844 12.8919 10.542H16.4416C16.48 10.6844 16.5001 10.8362 16.5001 11.0003C16.5001 11.1645 16.48 11.3163 16.4416 11.4587H12.8919C12.8535 11.3163 12.8334 11.1645 12.8334 11.0003ZM13.4749 12.3753C13.7975 12.6879 14.2064 12.9619 14.6667 13.2612C15.1271 12.9619 15.536 12.6879 15.8586 12.3753H13.4749Z" fill="#17CF9D"/>
<path fill-rule="evenodd" clip-rule="evenodd" d="M4.125 2.75C3.36561 2.75 2.75 3.36561 2.75 4.125V17.875C2.75 18.6344 3.36561 19.25 4.125 19.25H17.875C18.6344 19.25 19.25 18.6344 19.25 17.875V4.125C19.25 3.36561 18.6344 2.75 17.875 2.75H4.125ZM18.3333 4.125C18.3333 3.87187 18.1281 3.66667 17.875 3.66667H4.125C3.87187 3.66667 3.66667 3.87187 3.66667 4.125V17.875C3.66667 18.1281 3.87187 18.3333 4.125 18.3333H17.875C18.1281 18.3333 18.3333 18.1281 18.3333 17.875V4.125Z" fill="#207DFF"/>
</svg>
