<svg width="15" height="15" viewBox="0 0 15 15" fill="none" xmlns="http://www.w3.org/2000/svg">
<g id="receipt" clip-path="url(#clip0_3454_19827)">
<path id="Vector" d="M1.8 0.474236C1.87337 0.462285 1.94853 0.467954 2.01927 0.490775C2.09002 0.513596 2.15432 0.552915 2.20688 0.605486L2.8125 1.21205L3.41812 0.605486C3.46167 0.561833 3.51339 0.527199 3.57034 0.503568C3.62729 0.479937 3.68834 0.467773 3.75 0.467773C3.81166 0.467773 3.87271 0.479937 3.92966 0.503568C3.98661 0.527199 4.03833 0.561833 4.08188 0.605486L4.6875 1.21205L5.29313 0.605486C5.33667 0.561833 5.38839 0.527199 5.44534 0.503568C5.50229 0.479937 5.56334 0.467773 5.625 0.467773C5.68666 0.467773 5.74771 0.479937 5.80466 0.503568C5.86161 0.527199 5.91333 0.561833 5.95687 0.605486L6.5625 1.21205L7.16813 0.605486C7.21167 0.561833 7.26339 0.527199 7.32034 0.503568C7.37729 0.479937 7.43834 0.467773 7.5 0.467773C7.56166 0.467773 7.62271 0.479937 7.67966 0.503568C7.7366 0.527199 7.78833 0.561833 7.83187 0.605486L8.4375 1.21205L9.04313 0.605486C9.08667 0.561833 9.1384 0.527199 9.19534 0.503568C9.25229 0.479937 9.31334 0.467773 9.375 0.467773C9.43666 0.467773 9.49771 0.479937 9.55466 0.503568C9.6116 0.527199 9.66333 0.561833 9.70687 0.605486L10.3125 1.21205L10.9181 0.605486C10.9617 0.561833 11.0134 0.527199 11.0703 0.503568C11.1273 0.479937 11.1883 0.467773 11.25 0.467773C11.3117 0.467773 11.3727 0.479937 11.4297 0.503568C11.4866 0.527199 11.5383 0.561833 11.5819 0.605486L12.1875 1.21205L12.7931 0.605486C12.8456 0.552923 12.9099 0.513599 12.9806 0.490758C13.0513 0.467918 13.1265 0.462214 13.1998 0.474118C13.2732 0.486022 13.3426 0.515192 13.4025 0.559224C13.4623 0.603255 13.5109 0.660885 13.5441 0.727361L14.0128 1.66486C14.0455 1.73004 14.0625 1.80195 14.0625 1.87486V13.1249C14.0625 13.1978 14.0455 13.2697 14.0128 13.3349L13.5441 14.2724C13.5108 14.3387 13.4623 14.3961 13.4025 14.4401C13.3428 14.484 13.2734 14.5131 13.2002 14.525C13.127 14.5369 13.052 14.5312 12.9814 14.5085C12.9108 14.4858 12.8466 14.4466 12.7941 14.3942L12.1875 13.7877L11.5819 14.3942C11.5383 14.4379 11.4866 14.4725 11.4297 14.4962C11.3727 14.5198 11.3117 14.5319 11.25 14.5319C11.1883 14.5319 11.1273 14.5198 11.0703 14.4962C11.0134 14.4725 10.9617 14.4379 10.9181 14.3942L10.3125 13.7877L9.70687 14.3942C9.66333 14.4379 9.6116 14.4725 9.55466 14.4962C9.49771 14.5198 9.43666 14.5319 9.375 14.5319C9.31334 14.5319 9.25229 14.5198 9.19534 14.4962C9.1384 14.4725 9.08667 14.4379 9.04313 14.3942L8.4375 13.7877L7.83187 14.3942C7.78833 14.4379 7.7366 14.4725 7.67966 14.4962C7.62271 14.5198 7.56166 14.5319 7.5 14.5319C7.43834 14.5319 7.37729 14.5198 7.32034 14.4962C7.26339 14.4725 7.21167 14.4379 7.16813 14.3942L6.5625 13.7877L5.95687 14.3942C5.91333 14.4379 5.86161 14.4725 5.80466 14.4962C5.74771 14.5198 5.68666 14.5319 5.625 14.5319C5.56334 14.5319 5.50229 14.5198 5.44534 14.4962C5.38839 14.4725 5.33667 14.4379 5.29313 14.3942L4.6875 13.7877L4.08188 14.3942C4.03833 14.4379 3.98661 14.4725 3.92966 14.4962C3.87271 14.5198 3.81166 14.5319 3.75 14.5319C3.68834 14.5319 3.62729 14.5198 3.57034 14.4962C3.51339 14.4725 3.46167 14.4379 3.41812 14.3942L2.8125 13.7877L2.20688 14.3942C2.15435 14.4468 2.09009 14.4861 2.01938 14.509C1.94867 14.5318 1.87354 14.5375 1.8002 14.5256C1.72685 14.5137 1.65738 14.4845 1.59753 14.4405C1.53767 14.3965 1.48914 14.3388 1.45594 14.2724L0.987187 13.3349C0.954518 13.2697 0.937505 13.1978 0.9375 13.1249V1.87486C0.937505 1.80195 0.954518 1.73004 0.987187 1.66486L1.45594 0.727361C1.48914 0.660931 1.53764 0.60334 1.59746 0.559331C1.65728 0.515323 1.7267 0.486157 1.8 0.474236ZM2.00344 1.72861L1.875 1.98549V13.0142L2.00344 13.2711L2.48156 12.793C2.56947 12.7051 2.68867 12.6557 2.81297 12.6557C2.93726 12.6557 3.05647 12.7051 3.14438 12.793L3.75 13.3995L4.35562 12.7939C4.39917 12.7503 4.45089 12.7156 4.50784 12.692C4.56479 12.6684 4.62584 12.6562 4.6875 12.6562C4.74916 12.6562 4.81021 12.6684 4.86716 12.692C4.92411 12.7156 4.97583 12.7503 5.01937 12.7939L5.625 13.3995L6.23063 12.7939C6.27417 12.7503 6.32589 12.7156 6.38284 12.692C6.43979 12.6684 6.50084 12.6562 6.5625 12.6562C6.62416 12.6562 6.68521 12.6684 6.74216 12.692C6.79911 12.7156 6.85083 12.7503 6.89437 12.7939L7.5 13.3995L8.10563 12.7939C8.14917 12.7503 8.2009 12.7156 8.25784 12.692C8.31479 12.6684 8.37584 12.6562 8.4375 12.6562C8.49916 12.6562 8.56021 12.6684 8.61716 12.692C8.6741 12.7156 8.72583 12.7503 8.76937 12.7939L9.375 13.3995L9.98063 12.7939C10.0242 12.7503 10.0759 12.7156 10.1328 12.692C10.1898 12.6684 10.2508 12.6562 10.3125 12.6562C10.3742 12.6562 10.4352 12.6684 10.4922 12.692C10.5491 12.7156 10.6008 12.7503 10.6444 12.7939L11.25 13.3995L11.8556 12.7939C11.8992 12.7503 11.9509 12.7156 12.0078 12.692C12.0648 12.6684 12.1258 12.6562 12.1875 12.6562C12.2492 12.6562 12.3102 12.6684 12.3672 12.692C12.4241 12.7156 12.4758 12.7503 12.5194 12.7939L12.9966 13.2711L13.125 13.0142V1.98549L12.9966 1.72861L12.5184 2.20674C12.4305 2.29461 12.3113 2.34398 12.187 2.34398C12.0627 2.34398 11.9435 2.29461 11.8556 2.20674L11.25 1.60017L10.6444 2.20674C10.6008 2.25039 10.5491 2.28502 10.4922 2.30865C10.4352 2.33229 10.3742 2.34445 10.3125 2.34445C10.2508 2.34445 10.1898 2.33229 10.1328 2.30865C10.0759 2.28502 10.0242 2.25039 9.98063 2.20674L9.375 1.60017L8.76937 2.20674C8.72583 2.25039 8.6741 2.28502 8.61716 2.30865C8.56021 2.33229 8.49916 2.34445 8.4375 2.34445C8.37584 2.34445 8.31479 2.33229 8.25784 2.30865C8.2009 2.28502 8.14917 2.25039 8.10563 2.20674L7.5 1.60017L6.89437 2.20674C6.85083 2.25039 6.79911 2.28502 6.74216 2.30865C6.68521 2.33229 6.62416 2.34445 6.5625 2.34445C6.50084 2.34445 6.43979 2.33229 6.38284 2.30865C6.32589 2.28502 6.27417 2.25039 6.23063 2.20674L5.625 1.60017L5.01937 2.20674C4.97583 2.25039 4.92411 2.28502 4.86716 2.30865C4.81021 2.33229 4.74916 2.34445 4.6875 2.34445C4.62584 2.34445 4.56479 2.33229 4.50784 2.30865C4.45089 2.28502 4.39917 2.25039 4.35562 2.20674L3.75 1.60017L3.14438 2.20674C3.10083 2.25039 3.04911 2.28502 2.99216 2.30865C2.93521 2.33229 2.87416 2.34445 2.8125 2.34445C2.75084 2.34445 2.68979 2.33229 2.63284 2.30865C2.57589 2.28502 2.52417 2.25039 2.48062 2.20674L2.00344 1.72861Z" fill="black"/>
<path id="Vector_2" d="M2.8125 4.21875C2.8125 4.09443 2.86189 3.9752 2.94979 3.88729C3.0377 3.79939 3.15693 3.75 3.28125 3.75H8.90625C9.03057 3.75 9.1498 3.79939 9.23771 3.88729C9.32561 3.9752 9.375 4.09443 9.375 4.21875C9.375 4.34307 9.32561 4.4623 9.23771 4.55021C9.1498 4.63811 9.03057 4.6875 8.90625 4.6875H3.28125C3.15693 4.6875 3.0377 4.63811 2.94979 4.55021C2.86189 4.4623 2.8125 4.34307 2.8125 4.21875ZM2.8125 6.09375C2.8125 5.96943 2.86189 5.8502 2.94979 5.76229C3.0377 5.67439 3.15693 5.625 3.28125 5.625H8.90625C9.03057 5.625 9.1498 5.67439 9.23771 5.76229C9.32561 5.8502 9.375 5.96943 9.375 6.09375C9.375 6.21807 9.32561 6.3373 9.23771 6.42521C9.1498 6.51311 9.03057 6.5625 8.90625 6.5625H3.28125C3.15693 6.5625 3.0377 6.51311 2.94979 6.42521C2.86189 6.3373 2.8125 6.21807 2.8125 6.09375ZM2.8125 7.96875C2.8125 7.84443 2.86189 7.7252 2.94979 7.63729C3.0377 7.54939 3.15693 7.5 3.28125 7.5H8.90625C9.03057 7.5 9.1498 7.54939 9.23771 7.63729C9.32561 7.7252 9.375 7.84443 9.375 7.96875C9.375 8.09307 9.32561 8.2123 9.23771 8.30021C9.1498 8.38811 9.03057 8.4375 8.90625 8.4375H3.28125C3.15693 8.4375 3.0377 8.38811 2.94979 8.30021C2.86189 8.2123 2.8125 8.09307 2.8125 7.96875ZM2.8125 9.84375C2.8125 9.71943 2.86189 9.6002 2.94979 9.51229C3.0377 9.42439 3.15693 9.375 3.28125 9.375H8.90625C9.03057 9.375 9.1498 9.42439 9.23771 9.51229C9.32561 9.6002 9.375 9.71943 9.375 9.84375C9.375 9.96807 9.32561 10.0873 9.23771 10.1752C9.1498 10.2631 9.03057 10.3125 8.90625 10.3125H3.28125C3.15693 10.3125 3.0377 10.2631 2.94979 10.1752C2.86189 10.0873 2.8125 9.96807 2.8125 9.84375ZM10.3125 4.21875C10.3125 4.09443 10.3619 3.9752 10.4498 3.88729C10.5377 3.79939 10.6569 3.75 10.7812 3.75H11.7188C11.8431 3.75 11.9623 3.79939 12.0502 3.88729C12.1381 3.9752 12.1875 4.09443 12.1875 4.21875C12.1875 4.34307 12.1381 4.4623 12.0502 4.55021C11.9623 4.63811 11.8431 4.6875 11.7188 4.6875H10.7812C10.6569 4.6875 10.5377 4.63811 10.4498 4.55021C10.3619 4.4623 10.3125 4.34307 10.3125 4.21875ZM10.3125 6.09375C10.3125 5.96943 10.3619 5.8502 10.4498 5.76229C10.5377 5.67439 10.6569 5.625 10.7812 5.625H11.7188C11.8431 5.625 11.9623 5.67439 12.0502 5.76229C12.1381 5.8502 12.1875 5.96943 12.1875 6.09375C12.1875 6.21807 12.1381 6.3373 12.0502 6.42521C11.9623 6.51311 11.8431 6.5625 11.7188 6.5625H10.7812C10.6569 6.5625 10.5377 6.51311 10.4498 6.42521C10.3619 6.3373 10.3125 6.21807 10.3125 6.09375ZM10.3125 7.96875C10.3125 7.84443 10.3619 7.7252 10.4498 7.63729C10.5377 7.54939 10.6569 7.5 10.7812 7.5H11.7188C11.8431 7.5 11.9623 7.54939 12.0502 7.63729C12.1381 7.7252 12.1875 7.84443 12.1875 7.96875C12.1875 8.09307 12.1381 8.2123 12.0502 8.30021C11.9623 8.38811 11.8431 8.4375 11.7188 8.4375H10.7812C10.6569 8.4375 10.5377 8.38811 10.4498 8.30021C10.3619 8.2123 10.3125 8.09307 10.3125 7.96875ZM10.3125 9.84375C10.3125 9.71943 10.3619 9.6002 10.4498 9.51229C10.5377 9.42439 10.6569 9.375 10.7812 9.375H11.7188C11.8431 9.375 11.9623 9.42439 12.0502 9.51229C12.1381 9.6002 12.1875 9.71943 12.1875 9.84375C12.1875 9.96807 12.1381 10.0873 12.0502 10.1752C11.9623 10.2631 11.8431 10.3125 11.7188 10.3125H10.7812C10.6569 10.3125 10.5377 10.2631 10.4498 10.1752C10.3619 10.0873 10.3125 9.96807 10.3125 9.84375Z" fill="black"/>
</g>
<defs>
<clipPath id="clip0_3454_19827">
<rect width="15" height="15" fill="white"/>
</clipPath>
</defs>
</svg>
