<svg width="17" height="17" viewBox="0 0 17 17" fill="none" xmlns="http://www.w3.org/2000/svg">
<path fill-rule="evenodd" clip-rule="evenodd" d="M0.772949 14.0498V2.96632C0.772949 1.76005 1.75215 0.780806 2.95838 0.780806H14.0421C15.2483 0.780806 16.2275 1.76005 16.2275 2.96632V14.0498C16.2275 15.2561 15.2483 16.2354 14.0421 16.2354H2.95838C1.75215 16.2354 0.772949 15.2561 0.772949 14.0498Z" fill="#E6F1FF"/>
<path d="M9.09041 12.7009V13.8081H6.36305V12.6568H7.15809L8.8196 10.3097L7.15809 8.1441H7.16492L6.40249 7.15772H6.03416V8.99011H6.67734V10.1414H3.53382V8.99011H4.26054V4.47745H3.53382V3.32615H7.43511C8.20966 3.32615 8.76712 3.5215 9.10843 3.91189C9.44973 4.30198 9.62054 4.74393 9.62054 5.23681C9.62054 6.01138 9.22675 6.57632 8.43947 6.93224L8.21928 6.96299L10.0879 9.34976L11.0091 8.08075H10.601V6.99311H13.2051V8.1441H12.469L10.8662 10.3638L12.6358 12.6568H13.4063V13.8081H10.2094V12.7009H10.6808L9.61247 11.3045L8.59879 12.7009H9.09041Z" fill="#17CF9D"/>
<path d="M6.05225 4.48256V6.0752H6.65971C7.41065 6.0752 7.78674 5.80717 7.78674 5.27174C7.78674 5.00682 7.70072 4.80929 7.52959 4.67885C7.35785 4.5481 7.12182 4.48256 6.82151 4.48256H6.05225Z" fill="#E6F1FF"/>
<rect x="0.4" y="0.4" width="16.2" height="16.2" rx="1.6" stroke="#207DFF" stroke-width="0.8"/>
</svg>
