<svg width="22" height="22" viewBox="0 0 22 22" fill="none" xmlns="http://www.w3.org/2000/svg">
<path fill-rule="evenodd" clip-rule="evenodd" d="M4.58325 10.5417C4.58325 10.0354 4.99364 9.625 5.49992 9.625H6.41659C6.92286 9.625 7.33325 10.0354 7.33325 10.5417V11.4583C7.33325 11.9646 6.92286 12.375 6.41659 12.375H5.49992C4.99364 12.375 4.58325 11.9646 4.58325 11.4583V10.5417ZM6.41659 10.5417V11.4583H5.49992V10.5417H6.41659Z" fill="#17CF9D"/>
<path fill-rule="evenodd" clip-rule="evenodd" d="M9.16667 9.625C8.66039 9.625 8.25 10.0354 8.25 10.5417V11.4583C8.25 11.9646 8.66039 12.375 9.16667 12.375H10.0833C10.5896 12.375 11 11.9646 11 11.4583V10.5417C11 10.0354 10.5896 9.625 10.0833 9.625H9.16667ZM10.0833 10.5417H9.16667V11.4583H10.0833V10.5417Z" fill="#17CF9D"/>
<path fill-rule="evenodd" clip-rule="evenodd" d="M11.9167 10.5417C11.9167 10.0354 12.3271 9.625 12.8334 9.625H13.7501C14.2564 9.625 14.6667 10.0354 14.6667 10.5417V11.4583C14.6667 11.9646 14.2564 12.375 13.7501 12.375H12.8334C12.3271 12.375 11.9167 11.9646 11.9167 11.4583V10.5417ZM12.8334 10.5417H13.7501V11.4583H12.8334V10.5417Z" fill="#17CF9D"/>
<path fill-rule="evenodd" clip-rule="evenodd" d="M5.49992 13.292C4.99364 13.292 4.58325 13.7024 4.58325 14.2087V15.1253C4.58325 15.6316 4.99364 16.042 5.49992 16.042H6.41659C6.92286 16.042 7.33325 15.6316 7.33325 15.1253V14.2087C7.33325 13.7024 6.92286 13.292 6.41659 13.292H5.49992ZM5.49992 14.2087V15.1253H6.41659V14.2087H5.49992Z" fill="#17CF9D"/>
<path fill-rule="evenodd" clip-rule="evenodd" d="M8.25 14.2087C8.25 13.7024 8.66039 13.292 9.16667 13.292H10.0833C10.5896 13.292 11 13.7024 11 14.2087V15.1253C11 15.6316 10.5896 16.042 10.0833 16.042H9.16667C8.66039 16.042 8.25 15.6316 8.25 15.1253V14.2087ZM9.16667 14.2087H10.0833V15.1253H9.16667V14.2087Z" fill="#17CF9D"/>
<path d="M16.0416 14.4375C16.2947 14.4375 16.4999 14.6427 16.4999 14.8958V15.8518L16.824 16.1759C17.003 16.3549 17.003 16.6451 16.824 16.8241C16.645 17.0031 16.3548 17.0031 16.1758 16.8241L15.5833 16.2315V14.8958C15.5833 14.6427 15.7884 14.4375 16.0416 14.4375Z" fill="#207DFF"/>
<path fill-rule="evenodd" clip-rule="evenodd" d="M5.5 3.20833C5.5 2.9552 5.7052 2.75 5.95833 2.75C6.21147 2.75 6.41667 2.9552 6.41667 3.20833V5.5C6.41667 5.75314 6.21147 5.95833 5.95833 5.95833C5.7052 5.95833 5.5 5.75314 5.5 5.5V5.04167H4.125C3.87187 5.04167 3.66667 5.24686 3.66667 5.5V7.33333H15.5833V5.5C15.5833 5.24686 15.3781 5.04167 15.125 5.04167H13.75V4.125H15.125C15.8844 4.125 16.5 4.74063 16.5 5.5V12.8658C18.0548 13.0882 19.25 14.4254 19.25 16.0417C19.25 17.8136 17.8136 19.25 16.0417 19.25C14.9514 19.25 13.9881 18.7062 13.4084 17.875H4.125C3.36561 17.875 2.75 17.2594 2.75 16.5V5.5C2.75 4.74059 3.36561 4.125 4.125 4.125H5.5V3.20833ZM12.8333 16.0417C12.8333 14.4254 14.0285 13.0882 15.5833 12.8658V8.25H3.66667V16.5C3.66667 16.7531 3.87187 16.9583 4.125 16.9583H12.9662C12.8798 16.6679 12.8333 16.3602 12.8333 16.0417ZM16.0417 18.3333C17.3073 18.3333 18.3333 17.3073 18.3333 16.0417C18.3333 14.776 17.3073 13.75 16.0417 13.75C14.776 13.75 13.75 14.776 13.75 16.0417C13.75 17.3073 14.776 18.3333 16.0417 18.3333Z" fill="#207DFF"/>
<path d="M12.3749 5.95833C12.1218 5.95833 11.9166 5.75314 11.9166 5.5V5.04167H7.33325V4.125H11.9166V3.20833C11.9166 2.9552 12.1218 2.75 12.3749 2.75C12.6281 2.75 12.8333 2.9552 12.8333 3.20833V5.5C12.8333 5.75314 12.6281 5.95833 12.3749 5.95833Z" fill="#207DFF"/>
</svg>
