<svg width="22" height="22" viewBox="0 0 22 22" fill="none" xmlns="http://www.w3.org/2000/svg">
<path fill-rule="evenodd" clip-rule="evenodd" d="M8.76973 2.56738H13.2304V3.32993C13.2976 4.06556 13.4005 4.61818 13.5458 5.0189C13.6916 5.4209 13.864 5.62665 14.0422 5.73161C14.2194 5.83592 14.4786 5.88551 14.8934 5.81429C15.3081 5.74306 15.834 5.55822 16.5022 5.2477L17.1875 4.85202L19.4178 8.71508L18.8648 9.0344C18.2305 9.47578 17.7806 9.85349 17.491 10.1905C17.2005 10.5288 17.1037 10.7881 17.1017 10.9998C17.0996 11.21 17.1901 11.4661 17.4734 11.8003C17.7566 12.1343 18.2015 12.5093 18.8347 12.9477L19.4178 13.2843L19.18 13.6963L17.1875 17.1474L16.4723 16.7344C15.7918 16.4245 15.263 16.2466 14.8511 16.1866C14.4421 16.127 14.1934 16.1894 14.0226 16.3077C13.8438 16.4314 13.6708 16.6707 13.53 17.1263C13.3895 17.5809 13.2967 18.2002 13.2413 19.0158L13.2304 19.0158V19.4321H8.76973V18.4803C8.69713 17.7742 8.5881 17.2529 8.43868 16.882C8.28995 16.5129 8.11743 16.3313 7.93694 16.2413C7.75049 16.1484 7.47494 16.1128 7.04063 16.2018C6.6092 16.2903 6.06763 16.4922 5.38618 16.8163L4.81262 17.1474L2.58228 13.2843L3.41742 12.8022C3.97447 12.3986 4.36545 12.0514 4.6143 11.7417C4.8635 11.4317 4.94494 11.1913 4.94325 10.9918C4.94155 10.7917 4.85552 10.5494 4.5989 10.2374C4.34277 9.926 3.94257 9.57711 3.37363 9.17195L2.58228 8.71508L4.81262 4.85202L5.29296 5.12936C5.99017 5.46229 6.54686 5.67363 6.99232 5.77015C7.44181 5.86755 7.72982 5.83753 7.92457 5.74691C8.11019 5.66061 8.28491 5.48466 8.4352 5.12303C8.58695 4.75801 8.69759 4.2408 8.76973 3.53502V2.56738ZM5.15729 15.9111C5.79621 15.6157 6.36083 15.4054 6.85656 15.3038C7.39927 15.1926 7.90646 15.2019 8.34596 15.421C8.79137 15.643 9.08791 16.0406 9.28893 16.5394C9.48758 17.0325 9.60821 17.6609 9.68406 18.4108L9.6864 18.4339V18.5154H12.3616C12.4215 17.8663 12.5133 17.3117 12.6542 16.8557C12.8255 16.3012 13.0852 15.8416 13.5009 15.5539C13.9247 15.2607 14.4325 15.1992 14.9832 15.2795C15.5213 15.3578 16.1416 15.5767 16.8497 15.8991L18.1746 13.6045C17.5818 13.185 17.1083 12.7872 16.7742 12.3931C16.4094 11.9628 16.1801 11.5001 16.1851 10.9908C16.19 10.4831 16.4272 10.0223 16.7957 9.59325C17.1289 9.20536 17.5956 8.81266 18.1763 8.3981L16.8482 6.09763C16.1682 6.41136 15.5703 6.62811 15.0486 6.71771C14.5081 6.81057 14.0058 6.77399 13.5771 6.5215C13.1494 6.26964 12.8714 5.84793 12.6841 5.33143C12.5051 4.8379 12.3944 4.21868 12.3242 3.48405H9.6864V3.58114L9.68411 3.60399C9.60867 4.355 9.48597 4.98347 9.28165 5.47494C9.0743 5.97374 8.76763 6.36576 8.31122 6.57806C7.86393 6.78614 7.34922 6.78545 6.79817 6.66606C6.31852 6.56211 5.77471 6.36021 5.16205 6.08008L3.83447 8.37954L3.86933 8.3997L3.88685 8.41212C4.49137 8.84121 4.97276 9.2489 5.30689 9.65517C5.64321 10.0641 5.85583 10.5031 5.85991 10.984C5.86399 11.4655 5.65834 11.906 5.32884 12.316C5.00182 12.7228 4.52861 13.1306 3.93525 13.559L3.91633 13.5726L3.83447 13.6199L5.15729 15.9111Z" fill="#207DFF"/>
<path fill-rule="evenodd" clip-rule="evenodd" d="M10.9999 12.3747C11.7593 12.3747 12.3749 11.7591 12.3749 10.9997C12.3749 10.2403 11.7593 9.62467 10.9999 9.62467C10.2405 9.62467 9.62492 10.2403 9.62492 10.9997C9.62492 11.7591 10.2405 12.3747 10.9999 12.3747ZM10.9999 13.2913C12.2656 13.2913 13.2916 12.2654 13.2916 10.9997C13.2916 9.73403 12.2656 8.70801 10.9999 8.70801C9.73428 8.70801 8.70825 9.73403 8.70825 10.9997C8.70825 12.2654 9.73428 13.2913 10.9999 13.2913Z" fill="#17CF9D"/>
<path fill-rule="evenodd" clip-rule="evenodd" d="M11 14.2083C12.7719 14.2083 14.2083 12.7719 14.2083 11C14.2083 9.22808 12.7719 7.79167 11 7.79167C9.22808 7.79167 7.79167 9.22808 7.79167 11C7.79167 12.7719 9.22808 14.2083 11 14.2083ZM11 15.125C13.2782 15.125 15.125 13.2782 15.125 11C15.125 8.72185 13.2782 6.875 11 6.875C8.72181 6.875 6.875 8.72185 6.875 11C6.875 13.2782 8.72181 15.125 11 15.125Z" fill="#17CF9D"/>
</svg>
