<svg width="12" height="12" viewBox="0 0 12 12" fill="none" xmlns="http://www.w3.org/2000/svg">
<g id="share" clip-path="url(#clip0_2696_31306)">
<path id="Vector" d="M10.125 0.750236C9.82659 0.750236 9.54044 0.868762 9.32946 1.07974C9.11848 1.29072 8.99996 1.57687 8.99995 1.87524C8.99996 2.1736 9.11848 2.45975 9.32946 2.67073C9.54044 2.88171 9.82659 3.00024 10.125 3.00024C10.4233 3.00024 10.7095 2.88171 10.9205 2.67073C11.1314 2.45975 11.25 2.1736 11.25 1.87524C11.25 1.57687 11.1314 1.29072 10.9205 1.07974C10.7095 0.868762 10.4233 0.750236 10.125 0.750236ZM8.24995 1.87524C8.2499 1.43531 8.40454 1.00937 8.68681 0.671944C8.96908 0.334515 9.36101 0.107083 9.79403 0.0294384C10.227 -0.0482064 10.6736 0.0288806 11.0555 0.247212C11.4374 0.465544 11.7304 0.811217 11.8832 1.22375C12.036 1.63629 12.0389 2.08942 11.8914 2.50387C11.7438 2.91831 11.4552 3.26768 11.0761 3.49084C10.697 3.71401 10.2515 3.79676 9.8175 3.72462C9.38353 3.65249 8.98874 3.43005 8.7022 3.09624L3.66371 5.43624C3.77954 5.80332 3.77954 6.19716 3.66371 6.56424L8.7022 8.90423C9.00509 8.55198 9.42795 8.32471 9.88885 8.26647C10.3497 8.20823 10.8159 8.32317 11.1968 8.58901C11.5778 8.85484 11.8466 9.25265 11.951 9.70533C12.0554 10.158 11.988 10.6333 11.7619 11.0392C11.5358 11.445 11.1671 11.7525 10.7273 11.902C10.2874 12.0514 9.80772 12.0323 9.38116 11.8483C8.95461 11.6643 8.61155 11.3284 8.41849 10.9059C8.22543 10.4833 8.19611 10.0042 8.3362 9.56124L3.2977 7.22124C3.04828 7.51191 2.71582 7.71923 2.34504 7.8153C1.97426 7.91137 1.58295 7.89158 1.22376 7.75859C0.864563 7.62561 0.554712 7.38581 0.335885 7.07145C0.117059 6.75709 -0.000244141 6.38326 -0.000244141 6.00024C-0.000244141 5.61721 0.117059 5.24338 0.335885 4.92902C0.554712 4.61466 0.864563 4.37486 1.22376 4.24188C1.58295 4.10889 1.97426 4.0891 2.34504 4.18517C2.71582 4.28124 3.04828 4.48856 3.2977 4.77924L8.3362 2.43924C8.27885 2.25674 8.24977 2.06653 8.24995 1.87524ZM1.87495 4.87524C1.57659 4.87524 1.29044 4.99376 1.07946 5.20474C0.868481 5.41572 0.749955 5.70187 0.749955 6.00024C0.749955 6.2986 0.868481 6.58475 1.07946 6.79573C1.29044 7.00671 1.57659 7.12524 1.87495 7.12524C2.17332 7.12524 2.45947 7.00671 2.67045 6.79573C2.88143 6.58475 2.99996 6.2986 2.99996 6.00024C2.99996 5.70187 2.88143 5.41572 2.67045 5.20474C2.45947 4.99376 2.17332 4.87524 1.87495 4.87524ZM10.125 9.00024C9.82659 9.00024 9.54044 9.11876 9.32946 9.32974C9.11848 9.54072 8.99996 9.82687 8.99995 10.1252C8.99996 10.4236 9.11848 10.7098 9.32946 10.9207C9.54044 11.1317 9.82659 11.2502 10.125 11.2502C10.4233 11.2502 10.7095 11.1317 10.9205 10.9207C11.1314 10.7098 11.25 10.4236 11.25 10.1252C11.25 9.82687 11.1314 9.54072 10.9205 9.32974C10.7095 9.11876 10.4233 9.00024 10.125 9.00024Z" fill="#232323"/>
</g>
<defs>
<clipPath id="clip0_2696_31306">
<rect width="12" height="12" fill="white"/>
</clipPath>
</defs>
</svg>
