<svg width="22" height="20" viewBox="0 0 22 20" fill="none" xmlns="http://www.w3.org/2000/svg">
<g clip-path="url(#clip0_1059_6005)">
<path d="M17.0076 7.69636C17.0076 3.73207 13.8364 0.535645 9.92108 0.535645C6.0058 0.535645 2.83459 3.73207 2.83459 7.6785C2.83459 7.6785 2.83459 7.6785 2.83459 7.69636C1.25785 7.78564 0 9.10707 0 10.7142V11.0714C0 12.7499 1.34643 14.1071 3.01176 14.1071H3.1712L4.42905 16.1249C5.31487 17.5535 6.82074 18.3928 8.48607 18.3928H8.7341C8.89354 18.9999 9.44274 19.4642 10.0982 19.4642C10.8778 19.4642 11.5155 18.8214 11.5155 18.0356C11.5155 17.2499 10.8778 16.6071 10.0982 16.6071C9.44274 16.6071 8.89354 17.0714 8.7341 17.6785H8.48607C7.06877 17.6785 5.77549 16.9464 5.03141 15.7321L4.00387 14.1071H4.25189C4.64165 14.1071 4.96054 13.7856 4.96054 13.3928V8.39279C4.96054 7.99993 4.64165 7.6785 4.25189 7.6785H3.54324C3.54324 4.12493 6.39556 1.24993 9.92108 1.24993C13.4466 1.24993 16.2989 4.12493 16.2989 7.6785H15.5903C15.2005 7.6785 14.8816 7.99993 14.8816 8.39279V13.3928C14.8816 13.7856 15.2005 14.1071 15.5903 14.1071H16.8304C18.4957 14.1071 19.8422 12.7499 19.8422 11.0714V10.7142C19.8422 9.10707 18.5843 7.78564 17.0076 7.69636ZM10.0982 17.3214C10.488 17.3214 10.8069 17.6428 10.8069 18.0356C10.8069 18.4285 10.488 18.7499 10.0982 18.7499C9.70849 18.7499 9.3896 18.4285 9.3896 18.0356C9.3896 17.6428 9.70849 17.3214 10.0982 17.3214ZM4.25189 8.39279V13.3928H3.01176C1.73619 13.3928 0.708649 12.3571 0.708649 11.0714V10.7142C0.708649 9.4285 1.73619 8.39279 3.01176 8.39279H4.25189ZM19.1335 11.0714C19.1335 12.3571 18.106 13.3928 16.8304 13.3928H15.5903V8.39279H16.8304C18.106 8.39279 19.1335 9.4285 19.1335 10.7142V11.0714Z" fill="#207DFF"/>
<path d="M12.8619 3.23208C12.8265 3.21422 12.7734 3.17851 12.7202 3.14279C12.6671 3.10708 12.6139 3.07137 12.5785 3.05351C12.419 2.94637 12.1887 2.99994 12.1001 3.17851C12.0116 3.35708 12.047 3.55351 12.2242 3.66065C12.2596 3.67851 12.3127 3.71422 12.3659 3.74994C12.419 3.78565 12.4722 3.82137 12.5253 3.83922C12.5785 3.87494 12.6493 3.89279 12.7025 3.89279C12.8265 3.89279 12.9328 3.83922 13.0037 3.71422C13.0923 3.55351 13.0391 3.33922 12.8619 3.23208Z" fill="#17CF9D"/>
<path d="M9.92117 2.32129C8.4153 2.32129 6.998 2.982 6.02361 4.12486C5.89959 4.26772 5.91731 4.49986 6.05904 4.62486C6.1299 4.67843 6.20077 4.71415 6.28935 4.71415C6.39565 4.71415 6.48423 4.67843 6.55509 4.58915C7.40547 3.607 8.62789 3.03557 9.92117 3.03557C10.2401 3.03557 10.559 3.07129 10.8778 3.14272C11.0727 3.17843 11.2499 3.05343 11.303 2.87486C11.3562 2.69629 11.2145 2.49986 11.0373 2.44629C10.6653 2.357 10.2932 2.32129 9.92117 2.32129Z" fill="#17CF9D"/>
</g>
<defs>
<clipPath id="clip0_1059_6005">
<rect width="19.8422" height="20" fill="white"/>
</clipPath>
</defs>
</svg>
