<svg width="22" height="22" viewBox="0 0 22 22" fill="none" xmlns="http://www.w3.org/2000/svg">
<path d="M8.70825 6.875V8.25H7.33325V9.16667H8.70825V10.5417H9.62492V9.16667H10.9999V8.25H9.62492V6.875H8.70825Z" fill="#17CF9D"/>
<path d="M7.79159 11.917C7.53845 11.917 7.33325 12.1222 7.33325 12.3753C7.33325 12.6285 7.53845 12.8337 7.79159 12.8337H14.2083C14.4614 12.8337 14.6666 12.6285 14.6666 12.3753C14.6666 12.1222 14.4614 11.917 14.2083 11.917H7.79159Z" fill="#17CF9D"/>
<path d="M7.33325 14.6663C7.33325 14.4132 7.53845 14.208 7.79159 14.208H14.2083C14.4614 14.208 14.6666 14.4132 14.6666 14.6663C14.6666 14.9195 14.4614 15.1247 14.2083 15.1247H7.79159C7.53845 15.1247 7.33325 14.9195 7.33325 14.6663Z" fill="#17CF9D"/>
<path d="M7.79159 16.5C7.53845 16.5 7.33325 16.7052 7.33325 16.9583C7.33325 17.2115 7.53845 17.4167 7.79159 17.4167H14.2083C14.4614 17.4167 14.6666 17.2115 14.6666 16.9583C14.6666 16.7052 14.4614 16.5 14.2083 16.5H7.79159Z" fill="#17CF9D"/>
<path fill-rule="evenodd" clip-rule="evenodd" d="M7.79159 3.20801C7.79159 2.44862 8.40717 1.83301 9.16659 1.83301H12.8333C13.5927 1.83301 14.2083 2.44862 14.2083 3.20801H16.0416C16.801 3.20801 17.4166 3.82362 17.4166 4.58301V18.7913C17.4166 19.5508 16.801 20.1663 16.0416 20.1663H5.95825C5.19884 20.1663 4.58325 19.5508 4.58325 18.7913V4.58301C4.58325 3.82362 5.19884 3.20801 5.95825 3.20801H7.79159ZM12.8333 5.49967C13.5927 5.49967 14.2083 4.88409 14.2083 4.12467H16.0416C16.2947 4.12467 16.4999 4.32988 16.4999 4.58301V18.7913C16.4999 19.0445 16.2947 19.2497 16.0416 19.2497H5.95825C5.70511 19.2497 5.49992 19.0445 5.49992 18.7913V4.58301C5.49992 4.32988 5.70511 4.12467 5.95825 4.12467H7.79159C7.79159 4.88409 8.40717 5.49967 9.16659 5.49967H12.8333ZM9.16659 2.74967C8.91345 2.74967 8.70825 2.95488 8.70825 3.20801V4.12467C8.70825 4.3778 8.91345 4.58301 9.16659 4.58301H12.8333C13.0864 4.58301 13.2916 4.3778 13.2916 4.12467V3.20801C13.2916 2.95488 13.0864 2.74967 12.8333 2.74967H9.16659Z" fill="#207DFF"/>
</svg>
