<svg width="80" height="80" viewBox="0 0 80 80" fill="none" xmlns="http://www.w3.org/2000/svg">
<path d="M40.0005 64.7251C53.6569 64.7251 64.7276 53.6549 64.7276 39.999C64.7276 26.3432 53.6569 15.2729 40.0005 15.2729C26.3441 15.2729 15.2734 26.3432 15.2734 39.999C15.2734 53.6549 26.3441 64.7251 40.0005 64.7251Z" fill="#32CE95"/>
<path d="M31.4822 9.3014C31.1434 9.3014 30.8291 9.07283 30.7352 8.72998L28.6331 0.97502C28.5229 0.562782 28.7638 0.138301 29.176 0.0280985C29.5883 -0.0861851 30.0128 0.158708 30.123 0.570946L32.2251 8.3259C32.3353 8.73814 32.0944 9.16262 31.6822 9.27282C31.6128 9.28915 31.5475 9.3014 31.4781 9.3014H31.4822Z" fill="#B8C2D8"/>
<path d="M56.2263 12.4861C56.0957 12.4861 55.9651 12.4534 55.8426 12.3841C55.4712 12.1718 55.3447 11.6984 55.5569 11.331L59.557 4.35972C59.7693 3.9883 60.2427 3.86177 60.6101 4.07401C60.9815 4.28625 61.1081 4.75971 60.8958 5.12705L56.8957 12.0984C56.7529 12.3473 56.4916 12.4861 56.2263 12.4861Z" fill="#B8C2D8"/>
<path d="M71.4748 32.2417C71.136 32.2417 70.8217 32.0131 70.7279 31.6703C70.6177 31.258 70.8585 30.8336 71.2707 30.7234L79.026 28.6214C79.4383 28.5071 79.8628 28.752 79.973 29.1642C80.0832 29.5764 79.8424 30.0009 79.4301 30.1111L71.6748 32.2131C71.6054 32.2295 71.5401 32.2417 71.4707 32.2417H71.4748Z" fill="#B8C2D8"/>
<path d="M75.2555 60.9913C75.1249 60.9913 74.9943 60.9586 74.8718 60.8892L67.9003 56.8893C67.5288 56.6771 67.4023 56.2036 67.6145 55.8363C67.8268 55.4649 68.2962 55.3383 68.6676 55.5506L75.6392 59.5505C76.0107 59.7627 76.1372 60.2362 75.9249 60.6035C75.7821 60.8525 75.5208 60.9913 75.2555 60.9913Z" fill="#B8C2D8"/>
<path d="M50.6345 79.9962C50.2957 79.9962 49.9814 79.7677 49.8876 79.4248L47.7855 71.6698C47.6753 71.2576 47.9161 70.8331 48.3283 70.7229C48.7406 70.6086 49.1651 70.8535 49.2753 71.2658L51.3774 79.0207C51.4876 79.433 51.2468 79.8574 50.8345 79.9677C50.7651 79.984 50.6998 79.9962 50.6304 79.9962H50.6345Z" fill="#B8C2D8"/>
<path d="M19.782 76.0261C19.6514 76.0261 19.5208 75.9935 19.3983 75.9241C19.0269 75.7119 18.9003 75.2384 19.1126 74.8711L23.1127 67.8998C23.3249 67.5283 23.7984 67.4018 24.1658 67.6141C24.5372 67.8263 24.6637 68.2998 24.4515 68.6671L20.4514 75.6384C20.3085 75.8874 20.0473 76.0261 19.782 76.0261Z" fill="#B8C2D8"/>
<path d="M0.773647 51.4C0.434863 51.4 0.12057 51.1714 0.02669 50.8285C-0.0835166 50.4163 0.157306 49.9918 0.56956 49.8816L8.32484 47.7796C8.73709 47.6694 9.16159 47.9102 9.2718 48.3225C9.38201 48.7347 9.14118 49.1592 8.72893 49.2694L0.97365 51.3714C0.904261 51.3877 0.838953 51.4 0.769564 51.4H0.773647Z" fill="#B8C2D8"/>
<path d="M11.7155 24.547C11.5849 24.547 11.4543 24.5143 11.3318 24.4449L4.36022 20.445C3.98879 20.2327 3.86225 19.7593 4.0745 19.3919C4.28675 19.0205 4.75615 18.894 5.12759 19.1062L12.0992 23.1062C12.4706 23.3184 12.5971 23.7919 12.3849 24.1592C12.242 24.4082 11.9808 24.547 11.7155 24.547Z" fill="#B8C2D8"/>
<path d="M26.3662 36.6072V50.1701C26.3662 51.1061 27.1307 51.8665 28.0706 51.8665H33.1792V34.9107H28.0706C27.1307 34.9107 26.3662 35.6712 26.3662 36.6072ZM50.4749 36.6072H45.4427C45.002 36.6072 44.7816 36.3147 44.7097 36.1887C44.6377 36.0627 44.4848 35.7297 44.7007 35.3472L46.4725 32.1658C46.8637 31.4683 46.8997 30.6493 46.5849 29.9203C46.2656 29.1868 45.636 28.6558 44.8581 28.4668L43.6079 28.1563C43.3021 28.0798 42.9828 28.1788 42.7669 28.4128L35.9764 35.9232C35.2704 36.7017 34.8836 37.7097 34.8836 38.7582V47.6276C34.8836 49.9631 36.7949 51.8665 39.1423 51.8665H47.6147C49.526 51.8665 51.2169 50.5841 51.7205 48.7481L53.5374 40.4412C53.5913 40.2117 53.6183 39.9732 53.6183 39.7347C53.6183 38.0067 52.2062 36.6027 50.4749 36.6027V36.6072Z" fill="white"/>
</svg>
