<svg width="20" height="18" viewBox="0 0 20 18" fill="none" xmlns="http://www.w3.org/2000/svg">
<path fill-rule="evenodd" clip-rule="evenodd" d="M19 16.25H18.25V1.25C18.25 0.835786 17.9142 0.5 17.5 0.5H12.25C11.8358 0.5 11.5 0.835786 11.5 1.25V5H7C6.58579 5 6.25 5.33579 6.25 5.75V9.5H2.5C2.08579 9.5 1.75 9.83579 1.75 10.25V16.25H1C0.585786 16.25 0.25 16.5858 0.25 17C0.25 17.4142 0.585786 17.75 1 17.75H19C19.4142 17.75 19.75 17.4142 19.75 17C19.75 16.5858 19.4142 16.25 19 16.25ZM13 2H16.75V16.25H13V2ZM7.75 6.5H11.5V16.25H7.75V6.5ZM3.25 11H6.25V16.25H3.25V11Z" fill="#0D141C"/>
</svg>
