<svg width="22" height="22" viewBox="0 0 22 22" fill="none" xmlns="http://www.w3.org/2000/svg">
<g id="check-square" clip-path="url(#clip0_3454_17406)">
<path id="Vector" d="M19.25 1.375C19.6147 1.375 19.9644 1.51987 20.2223 1.77773C20.4801 2.03559 20.625 2.38533 20.625 2.75V19.25C20.625 19.6147 20.4801 19.9644 20.2223 20.2223C19.9644 20.4801 19.6147 20.625 19.25 20.625H2.75C2.38533 20.625 2.03559 20.4801 1.77773 20.2223C1.51987 19.9644 1.375 19.6147 1.375 19.25V2.75C1.375 2.38533 1.51987 2.03559 1.77773 1.77773C2.03559 1.51987 2.38533 1.375 2.75 1.375H19.25ZM2.75 0C2.02065 0 1.32118 0.289731 0.805456 0.805456C0.289731 1.32118 0 2.02065 0 2.75L0 19.25C0 19.9793 0.289731 20.6788 0.805456 21.1945C1.32118 21.7103 2.02065 22 2.75 22H19.25C19.9793 22 20.6788 21.7103 21.1945 21.1945C21.7103 20.6788 22 19.9793 22 19.25V2.75C22 2.02065 21.7103 1.32118 21.1945 0.805456C20.6788 0.289731 19.9793 0 19.25 0L2.75 0Z" fill="#C5C5C5"/>
</g>
<defs>
<clipPath id="clip0_3454_17406">
<rect width="22" height="22" fill="white"/>
</clipPath>
</defs>
</svg>
