<svg width="22" height="22" viewBox="0 0 22 22" fill="none" xmlns="http://www.w3.org/2000/svg">
<path d="M18.2381 14.8719V7.24236C18.2381 7.05841 18.1578 6.88199 18.0149 6.75192C17.872 6.62184 17.6782 6.54877 17.4762 6.54877V5.85517C17.4762 5.67122 17.3959 5.4948 17.253 5.36473C17.1101 5.23465 16.9163 5.16158 16.7143 5.16158C16.7133 4.94716 16.6396 4.73826 16.5032 4.56345C16.3668 4.38864 16.1744 4.25646 15.9523 4.18499V1.3468C15.9523 1.25482 15.9122 1.16661 15.8408 1.10157C15.7693 1.03654 15.6724 1 15.5714 1C15.4704 1 15.3735 1.03654 15.302 1.10157C15.2306 1.16661 15.1904 1.25482 15.1904 1.3468V4.18499C14.9684 4.25646 14.776 4.38864 14.6396 4.56345C14.5032 4.73826 14.4295 4.94716 14.4285 5.16158C14.2265 5.16158 14.0327 5.23465 13.8898 5.36473C13.7469 5.4948 13.6666 5.67122 13.6666 5.85517V6.54877C13.4646 6.54877 13.2708 6.62184 13.1279 6.75192C12.985 6.88199 12.9047 7.05841 12.9047 7.24236V14.8719C12.7027 14.8719 12.5089 14.945 12.366 15.0751C12.2231 15.2051 12.1428 15.3816 12.1428 15.5655V16.2591C12.1428 16.4431 12.2231 16.6195 12.366 16.7496C12.5089 16.8796 12.7027 16.9527 12.9047 16.9527H14.0476V19.0335H13.6666C13.3635 19.0335 13.0728 19.1431 12.8585 19.3382C12.6442 19.5333 12.5238 19.798 12.5238 20.0739C12.5238 20.3498 12.6442 20.6144 12.8585 20.8096C13.0728 21.0047 13.3635 21.1143 13.6666 21.1143H17.4762C17.7793 21.1143 18.07 21.0047 18.2843 20.8096C18.4986 20.6144 18.619 20.3498 18.619 20.0739C18.619 19.798 18.4986 19.5333 18.2843 19.3382C18.07 19.1431 17.7793 19.0335 17.4762 19.0335H17.0952V16.9527H18.2381C18.4401 16.9527 18.6339 16.8796 18.7768 16.7496C18.9197 16.6195 19 16.4431 19 16.2591V15.5655C19 15.3816 18.9197 15.2051 18.7768 15.0751C18.6339 14.945 18.4401 14.8719 18.2381 14.8719ZM15.5714 4.81478C15.6724 4.81478 15.7693 4.85132 15.8408 4.91635C15.9122 4.98139 15.9523 5.0696 15.9523 5.16158H15.1904C15.1904 5.0696 15.2306 4.98139 15.302 4.91635C15.3735 4.85132 15.4704 4.81478 15.5714 4.81478ZM14.4285 5.85517H16.7143V6.54877H14.4285V5.85517ZM13.6666 13.8315H14.8095C14.9105 13.8315 15.0074 13.795 15.0789 13.73C15.1503 13.6649 15.1904 13.5767 15.1904 13.4847C15.1904 13.3928 15.1503 13.3045 15.0789 13.2395C15.0074 13.1745 14.9105 13.1379 14.8095 13.1379H13.6666V12.0975H14.8095C14.9105 12.0975 15.0074 12.061 15.0789 11.996C15.1503 11.9309 15.1904 11.8427 15.1904 11.7507C15.1904 11.6588 15.1503 11.5706 15.0789 11.5055C15.0074 11.4405 14.9105 11.4039 14.8095 11.4039H13.6666V10.3635H14.8095C14.9105 10.3635 15.0074 10.327 15.0789 10.262C15.1503 10.1969 15.1904 10.1087 15.1904 10.0167C15.1904 9.92477 15.1503 9.83656 15.0789 9.77153C15.0074 9.70649 14.9105 9.66995 14.8095 9.66995H13.6666V8.62956H14.8095C14.9105 8.62956 15.0074 8.59302 15.0789 8.52798C15.1503 8.46294 15.1904 8.37474 15.1904 8.28276C15.1904 8.19078 15.1503 8.10257 15.0789 8.03754C15.0074 7.9725 14.9105 7.93596 14.8095 7.93596H13.6666V7.24236H17.4762V14.8719H13.6666V13.8315ZM17.8571 20.0739C17.8571 20.1659 17.817 20.2541 17.7455 20.3191C17.6741 20.3842 17.5772 20.4207 17.4762 20.4207H13.6666C13.5656 20.4207 13.4687 20.3842 13.3973 20.3191C13.3258 20.2541 13.2857 20.1659 13.2857 20.0739C13.2857 19.9819 13.3258 19.8937 13.3973 19.8287C13.4687 19.7636 13.5656 19.7271 13.6666 19.7271H17.4762C17.5772 19.7271 17.6741 19.7636 17.7455 19.8287C17.817 19.8937 17.8571 19.9819 17.8571 20.0739ZM16.3333 19.0335H14.8095V16.9527H16.3333V19.0335ZM16.7143 16.2591H12.9047V15.5655H18.2381V16.2591H16.7143Z" fill="#207DFF"/>
<path d="M8.71429 12.4945V12.0985H9.09524C9.19627 12.0985 9.29317 12.0619 9.36461 11.9969C9.43606 11.9319 9.47619 11.8437 9.47619 11.7517V10.7113C9.47619 10.4354 9.35578 10.1707 9.14146 9.97562C8.92713 9.78051 8.63644 9.6709 8.33333 9.6709H4.52381C4.22071 9.6709 3.93001 9.78051 3.71569 9.97562C3.50136 10.1707 3.38095 10.4354 3.38095 10.7113V11.7517C3.38095 11.8437 3.42109 11.9319 3.49253 11.9969C3.56397 12.0619 3.66087 12.0985 3.7619 12.0985H4.14286V12.4945C3.81671 12.5712 3.52765 12.7441 3.32088 12.9861C3.1141 13.2282 3.00126 13.5258 3 13.8325V20.0748C3 20.3508 3.12041 20.6154 3.33474 20.8105C3.54906 21.0056 3.83975 21.1152 4.14286 21.1152H8.71429C9.01739 21.1152 9.30808 21.0056 9.52241 20.8105C9.73674 20.6154 9.85714 20.3508 9.85714 20.0748V13.8325C9.85588 13.5258 9.74304 13.2282 9.53627 12.9861C9.32949 12.7441 9.04044 12.5712 8.71429 12.4945ZM4.14286 10.7113C4.14286 10.6193 4.18299 10.5311 4.25444 10.4661C4.32588 10.401 4.42277 10.3645 4.52381 10.3645H8.33333C8.43437 10.3645 8.53127 10.401 8.60271 10.4661C8.67415 10.5311 8.71429 10.6193 8.71429 10.7113V11.4049H4.14286V10.7113ZM7.95238 12.0985V12.4453H4.90476V12.0985H7.95238Z" fill="#207DFF"/>
<path d="M7.57143 15.5163H9.09524V15.1695H7.19048C7.08944 15.1695 6.99254 15.206 6.9211 15.2711C6.84966 15.3361 6.80952 15.4243 6.80952 15.5163V17.5971C6.80952 17.689 6.84966 17.7772 6.9211 17.8423C6.99254 17.9073 7.08944 17.9439 7.19048 17.9439H9.09524V17.2503H7.57143C7.47039 17.2503 7.3735 17.2137 7.30205 17.1487C7.23061 17.0837 7.19048 16.9954 7.19048 16.9035C7.19048 16.8115 7.23061 16.7233 7.30205 16.6582C7.3735 16.5932 7.47039 16.5567 7.57143 16.5567H9.09524V16.2099H7.57143C7.47039 16.2099 7.3735 16.1733 7.30205 16.1083C7.23061 16.0433 7.19048 15.955 7.19048 15.8631C7.19048 15.7711 7.23061 15.6829 7.30205 15.6178C7.3735 15.5528 7.47039 15.5163 7.57143 15.5163Z" fill="#17CF9D"/>
<path d="M4.14286 20.3714H8.71429C8.81532 20.3714 8.91222 20.3349 8.98366 20.2699C9.0551 20.2048 9.09524 20.1166 9.09524 20.0246V18.6375H7.19048C6.88737 18.6375 6.59668 18.5278 6.38235 18.3327C6.16803 18.1376 6.04762 17.873 6.04762 17.5971V15.5163C6.04762 15.2403 6.16803 14.9757 6.38235 14.7806C6.59668 14.5855 6.88737 14.4759 7.19048 14.4759H9.09524V13.7823C9.09524 13.5983 9.01497 13.4219 8.87208 13.2918C8.7292 13.1618 8.5354 13.0887 8.33333 13.0887H4.52381C4.32174 13.0887 4.12795 13.1618 3.98506 13.2918C3.84218 13.4219 3.7619 13.5983 3.7619 13.7823V20.0246C3.7619 20.1166 3.80204 20.2048 3.87348 20.2699C3.94493 20.3349 4.04182 20.3714 4.14286 20.3714Z" fill="#17CF9D"/>
</svg>
